<?xml version="1.0" encoding="UTF-8"?>
<svg width="100pt" height="100pt" version="1.1" viewBox="0 0 100 100" xmlns="http://www.w3.org/2000/svg">
 <path d="m74.898 17.191c3.957 0.54688 7.0938 4.0938 7.6406 4.7734l6.1406 11.324h9.4141c0.95312 0 1.9102 0.82031 1.9102 1.7734v3.957c0 0.95312-0.95312 1.9102-1.9102 1.9102h-5.3203l2.7266 2.5938 2.7266 11.867c0.13672 8.7305 0.13672 17.461 0.13672 26.195 0 1.6367-1.3633 3-2.8633 3h-13.098c-1.6367 0-2.8633-1.3633-2.8633-3v-3.4102h-59.074v3.4102c0 1.6367-1.3633 3-3 3h-12.961c-1.6367 0-2.8633-1.3633-2.8633-3v-26.195l2.7266-11.867 2.8633-2.5938h-5.3203c-1.0898 0-1.9102-0.95313-1.9102-1.9102v-3.957c0-0.95312 0.82031-1.7734 1.9102-1.7734h9.4141l6.0039-11.324c0.54688-0.68359 3.8203-4.2305 7.7773-4.7734 15.281-2.3203 34.516-2.3203 49.797 0zm-18.281 50.203c0.54687 0 1.0898-0.54688 1.0898-1.0898 0-0.54688-0.54688-1.0898-1.0898-1.0898h-13.234c-0.68359 0-1.0898 0.54688-1.0898 1.0898 0 0.54687 0.41016 1.0898 1.0898 1.0898zm2.3203-3.957c0.54688 0 1.0898-0.54688 1.0898-1.0898 0-0.54688-0.54688-1.0898-1.0898-1.0898h-17.871c-0.68359 0-1.0898 0.54688-1.0898 1.0898 0 0.54688 0.41016 1.0898 1.0898 1.0898zm3.1367-3.957c0.54688 0 1.0898-0.41016 1.0898-1.0898 0-0.54688-0.41016-0.95312-1.0898-0.95312h-24.285c-0.54687 0-0.95312 0.41016-0.95312 0.95312 0 0.68359 0.41016 1.0898 0.95312 1.0898zm21.691-23.875c-1.7734-3.4102-3.5469-6.8203-5.3203-10.23-1.2266-1.9102-2.5938-2.457-4.0938-2.8633-15.961-1.9102-32.742-1.9102-48.84 0-1.3633 0.41016-2.8633 0.95312-4.0938 2.8633-1.6367 3.4102-3.4102 6.8203-5.1836 10.23 22.375-1.7734 45.156-1.7734 67.531 0zm-58.117 21.145h-14.598c-1.0898 0-2.0469 0.82031-2.0469 1.9102v4.3672c0 1.0898 0.95312 2.0469 2.0469 2.0469h14.598c1.0898 0 2.0469-0.95312 2.0469-2.0469v-4.3672c0-1.0898-0.95312-1.9102-2.0469-1.9102zm48.703 0h14.461c1.2266 0 2.0469 0.82031 2.0469 1.9102v4.3672c0 1.0898-0.82031 2.0469-2.0469 2.0469h-14.461c-1.0898 0-2.0469-0.95312-2.0469-2.0469v-4.3672c0-1.0898 0.95312-1.9102 2.0469-1.9102z" fill-rule="evenodd"/>
</svg>
