<?xml version="1.0" encoding="UTF-8"?>
<svg width="100pt" height="100pt" version="1.1" viewBox="0 0 100 100" xmlns="http://www.w3.org/2000/svg">
 <path d="m91.176 39.207c-1.7266 0-3.125 1.3984-3.125 3.125v10.309h-5.1602v-18.613c0-3.3125-2.6875-6-5.9961-6h-17.176v-4.6875h10.312c1.7266 0 3.1211-1.3984 3.1211-3.125 0-1.7266-1.3945-3.125-3.1211-3.125h-26.871c-1.7266 0-3.1211 1.3984-3.1211 3.125 0 1.7266 1.3984 3.125 3.1211 3.125h10.312v4.6875h-12.438s-2.6562-0.14062-4.2305 0.33203c-1.5742 0.47266-3.1523 2.4648-3.1523 2.4648l-7.5586 7.7852h-4.1406c-3.3125 0-6 2.6875-6 6v8.0312h-4.0039v-10.309c0-1.7266-1.3984-3.125-3.125-3.125-1.7266-0.003906-3.125 1.3984-3.125 3.125v26.871c0 1.7266 1.3984 3.125 3.125 3.125 1.7266 0 3.125-1.3984 3.125-3.125v-10.312h4.0078v8.1602c0 3.3125 2.6875 5.9961 6 5.9961h3.0312l8.3555 6.9805s1.6992 1.4297 3.7773 2.1211c1.8867 0.62891 5.3047 0.75781 5.3047 0.75781h22.441s1.1875 0 2.0781-0.37891c0.89063-0.375 1.4414-1.3359 1.4414-1.3359l6.3086-8.1445h2.1953c3.3125 0 6-2.6875 6-5.9961v-8.1641h5.1562v10.312c0 1.7266 1.3984 3.125 3.1289 3.125 1.7266 0 3.1211-1.3984 3.1211-3.125v-26.867c0.003906-1.7266-1.3945-3.125-3.1211-3.125m-47.25 33.746l5.5195-16.109h-7.4648l9.7227-19.164h11.391l-7.7734 15.969h7.9141z"/>
</svg>
