<?xml version="1.0" encoding="UTF-8"?>
<svg width="100pt" height="100pt" version="1.1" viewBox="0 0 100 100" xmlns="http://www.w3.org/2000/svg">
 <path d="m64.988 9.0039l-33.094 9.707 31.395 35.152c10.488-3.9336 20.551-8.4688 30.719-12.828zm-34.723 10.914l-24.273 30.152h7.0156v32.031l13.996 2.9766v-18c0-0.99219 0.85156-1.9492 1.8789-1.9844 3.8633 0.39062 7.7969 0.99219 11.691 1.5234 0.95703 0.10547 1.7344 0.99219 1.7734 1.9844v19.699l12.684 2.6914-0.035156-43.371zm56.727 26.469l-23.633 9.6016c-0.35547 0.14062-0.85156 0.035157-1.0977-0.24609l-5.2812-5.918 0.035156 40.926 29.977-18.672zm-55.984 22.996v16.547l7.3359 1.5234v-17.113zm1.9844 6.7305c0.56641 0 0.99219 0.42578 0.99219 0.99219 0 0.53125-0.42578 0.99219-0.99219 0.99219-0.56641 0-0.99219-0.46094-0.99219-0.99219 0-0.56641 0.42578-0.99219 0.99219-0.99219z"/>
</svg>
