<?xml version="1.0" encoding="UTF-8"?>
<svg width="100pt" height="100pt" version="1.1" viewBox="0 0 100 100" xmlns="http://www.w3.org/2000/svg">
 <path d="m95.602 20.5v-7.8008c0-1.5-1.1992-2.6992-2.6992-2.6992h-75.398v-4.6992c0-1.5-1.1992-2.6992-2.6992-2.6992h-7.8008c-1.5 0-2.6992 1.1992-2.6992 2.6992v89.398c0 1.5 1.1992 2.6992 2.6992 2.6992h7.8008c1.5 0 2.6992-1.1992 2.6992-2.6992v-71.5h24.898v9.5h-12.699c-1.5 0-2.6992 1.1992-2.6992 2.6992v48.199c0 1.5 1.1992 2.6992 2.6992 2.6992h63.199c1.5 0 2.6992-1.1992 2.6992-2.6992v-48.199c0-1.5-1.1992-2.6992-2.6992-2.6992h-12.699v-9.5h12.699c1.4961 0 2.6992-1.1992 2.6992-2.6992zm-49.402 2.6992h30.199v9.5h-30.199zm31 37.5h-2.6016v15c0 0.89844-0.69922 1.6016-1.6016 1.6016h-23.398c-0.89844 0-1.6016-0.69922-1.6016-1.6016v-15h-2.6016c-1.3984 0-2.1992-1.8008-1.1016-2.8008l15.898-15.898c0.60156-0.60156 1.6992-0.60156 2.3008 0l15.898 15.898c1.0078 1.1016 0.30859 2.8008-1.1914 2.8008z"/>
</svg>
