<?xml version="1.0" encoding="UTF-8"?>
<svg width="100pt" height="100pt" version="1.1" viewBox="0 0 100 100" xmlns="http://www.w3.org/2000/svg">
 <g>
  <path d="m36.641 25.781h27.031v20.469h-27.031z"/>
  <path d="m61.25 21.016h-22.109c-1.4062 0-2.7344-0.625-3.5156-1.5625-0.70312-0.85938-0.9375-1.875-0.70312-2.8906l2.5781-11.484c0.39062-1.7969 2.1875-3.0469 4.2188-3.0469h17.031c2.0312 0 3.8281 1.25 4.2188 3.0469l2.5 11.484c0.23438 1.0156 0 2.0312-0.70312 2.8906-0.85938 1.0156-2.1875 1.5625-3.5156 1.5625z"/>
  <path d="m42.812 17.5c-1.0938 0-1.9531 0.85938-1.9531 1.9531v6.3281c0 1.0938 0.85938 1.9531 1.9531 1.9531s1.9531-0.85938 1.9531-1.9531v-6.3281c0-1.0156-0.85938-1.9531-1.9531-1.9531z"/>
  <path d="m57.578 17.5c-1.0938 0-1.9531 0.85938-1.9531 1.9531v6.3281c0 1.0938 0.85938 1.9531 1.9531 1.9531s1.9531-0.85938 1.9531-1.9531v-6.3281c0-1.0156-0.9375-1.9531-1.9531-1.9531z"/>
  <path d="m77.891 72.109c-2.9688-0.54688-6.1719 1.0938-8.2812 3.9844h-38.594c-2.2656-3.0469-5.7031-4.6875-8.9844-3.9844-5.1562 1.0938-6.9531 7.5781-6.3281 11.797 0.39062 2.8125 1.9531 4.6875 3.5938 6.7188 2.4219 2.9688 5.3906 5.3906 8.9062 7.1875 0.23438 0.15625 0.46875 0.15625 0.70312 0.15625h0.078125 42.422c0.15625 0 0.3125-0.078125 0.39062-0.15625 3.5156-1.875 6.4844-4.2969 8.9062-7.1875 1.6406-1.9531 3.125-3.9062 3.5938-6.7188 0.625-4.2969-1.3281-10.938-6.4062-11.797z"/>
  <path d="m36.641 49.375h27.031v25.156h-27.031z"/>
  <path d="m31.797 74.531h1.7188v-48.672c-3.8281 0.23438-6.875 4.5312-6.5625 9.4531 0.46875 8.4375-0.3125 13.672-1.3281 17.109-0.15625 0.39062-0.39062 1.1719-0.625 2.2656-0.625 2.3438-1.0156 4.2188-1.0938 4.9219-0.70312 4.0625-0.078125 9.375 0.15625 10.781 2.7344 0.15625 5.625 1.6406 7.7344 4.1406z"/>
  <path d="m68.828 74.531c2.3438-2.8125 5.5469-4.375 8.5938-4.0625 0.70312-2.2656-1.3281-7.5-1.4062-9.6875v-0.3125c0-0.46875-0.078125-1.4062-0.23438-2.5-0.078125-0.78125-0.23438-1.7188-0.46875-2.7344-0.15625-0.625-0.23438-1.0156-0.3125-1.25-0.70312-3.0469-1.1719-8.4375-0.54688-18.516 0.3125-5.1562-2.8906-9.6094-6.9531-9.6094h-0.625v48.75h1.9531z"/>
 </g>
</svg>
