<?xml version="1.0" encoding="UTF-8"?>
<svg width="100pt" height="100pt" version="1.1" viewBox="0 0 100 100" xmlns="http://www.w3.org/2000/svg">
 <g>
  <path d="m63.301 3.1992c-1-1-2.5-1-3.5 0s-1 2.5 0 3.5l3.6016 3.6016h-52.504l3.6016-3.6016c1-1 1-2.5 0-3.5s-2.5-1-3.5 0l-7.8008 7.8008c-1 1-1 2.5 0 3.5l7.8008 7.8008c0.5 0.5 1.1016 0.69922 1.6992 0.69922 0.60156 0 1.3008-0.19922 1.6992-0.69922 1-1 1-2.5 0-3.5l-3.6016-3.6016h52.602l-3.6016 3.6016c-1 1-1 2.5 0 3.5 0.5 0.5 1.1016 0.69922 1.6992 0.69922 0.60156 0 1.3008-0.19922 1.6992-0.69922l7.8008-7.8008c1-1 1-2.5 0-3.5z"/>
  <path d="m93.301 85.398-3.6016 3.6016v-52.5l3.6016 3.6016c0.5 0.5 1.1016 0.69922 1.6992 0.69922 0.60156 0 1.3008-0.19922 1.6992-0.69922 1-1 1-2.5 0-3.5l-7.8008-7.8008c-0.89844-0.89844-2.6016-0.89844-3.5 0l-7.8008 7.8008c-1 1-1 2.5 0 3.5s2.5 1 3.5 0l3.6016-3.6016v52.602l-3.6016-3.6016c-1-1-2.5-1-3.5 0s-1 2.5 0 3.5l7.8008 7.8008c0.5 0.5 1.1016 0.69922 1.6992 0.69922 0.60156 0 1.3008-0.19922 1.6992-0.69922l7.8008-7.8008c1-1 1-2.5 0-3.5-0.79688-1-2.2969-1-3.2969-0.10156z"/>
  <path d="m68.102 29.398h-61.801c-1.3984 0-2.5 1.1016-2.5 2.5v61.898c0 1.3984 1.1016 2.5 2.5 2.5h61.898c1.3984 0 2.5-1.1016 2.5-2.5v-61.898c-0.097657-1.3984-1.1992-2.5-2.5977-2.5z"/>
 </g>
</svg>
