<?xml version="1.0" encoding="UTF-8"?>
<svg width="100pt" height="100pt" version="1.1" viewBox="0 0 100 100" xmlns="http://www.w3.org/2000/svg">
 <path d="m54.469 44.094h6.8828v-13.777c0-1.6445 1.4375-2.8672 3.0391-2.8672h1.0586c1.6016 0 3.0391 1.2266 3.0391 2.8672v34.27c0 1.6445-1.4336 2.8672-3.0391 2.8672h-1.0586c-1.6055 0-3.0391-1.2266-3.0391-2.8672v-13.773h-6.8828v13.777c0 1.6445-1.4336 2.8672-3.0391 2.8672h-1.0586c-1.6055 0-3.0391-1.2266-3.0391-2.8672v-13.777h-10.98c-1.6016 0-3.0391-1.2227-3.0391-2.8672v-17.629c0-1.6445 1.4375-2.8672 3.0391-2.8672h1.0586c1.6016 0 3.0391 1.2266 3.0391 2.8672v13.777h6.8828v-13.777c0-1.6445 1.4336-2.8672 3.0391-2.8672h1.0586c1.6055 0 3.0391 1.2227 3.0391 2.8672zm-3.5664-29.605c-18.207 0-32.965 14.758-32.965 32.965s14.758 32.965 32.965 32.965c18.207 0 32.965-14.758 32.965-32.965s-14.758-32.965-32.965-32.965z" fill-rule="evenodd"/>
</svg>
