<?xml version="1.0" standalone="no"?>
<!DOCTYPE svg PUBLIC "-//W3C//DTD SVG 1.1//EN" "http://www.w3.org/Graphics/SVG/1.1/DTD/svg11.dtd" >
<svg xmlns="http://www.w3.org/2000/svg" xmlns:xlink="http://www.w3.org/1999/xlink" version="1.1">
<metadata>
Created by FontForge 20170731 at Sun Sep 20 20:21:10 2020
 By Aleksey,,,
[c] Copyright 2000-2003, The Font Bureau, Inc. Designed by Cyrus Highsmith, Tobias Frere-Jones, and Font Bureau. All rights reserved.
</metadata>
<defs>
<font id="BentonSans-Medium" horiz-adv-x="1234" >
  <font-face 
    font-family="BentonSans"
    font-weight="500"
    font-stretch="normal"
    units-per-em="2048"
    panose-1="2 0 6 3 4 0 0 2 0 4"
    ascent="1638"
    descent="-410"
    x-height="1087"
    cap-height="1516"
    bbox="-188 -422 2933 1964"
    underline-thickness="40"
    underline-position="-312"
    unicode-range="U+0020-FB02"
  />
<missing-glyph horiz-adv-x="1024" 
 />
    <glyph glyph-name=".notdef" horiz-adv-x="1024" 
 />
    <glyph glyph-name=".null" horiz-adv-x="0" 
 />
    <glyph glyph-name="nonmarkingreturn" horiz-adv-x="682" 
 />
    <glyph glyph-name="space" unicode=" " horiz-adv-x="514" 
 />
    <glyph glyph-name="exclam" unicode="!" horiz-adv-x="694" 
d="M262 453l-67 1063h315l-68 -1063h-180zM211 0v256h283v-256h-283z" />
    <glyph glyph-name="quotedbl" unicode="&#x22;" horiz-adv-x="894" 
d="M561 979l-35 401v136h224v-136l-35 -401h-154zM180 979l-35 401v136h224v-136l-35 -401h-154z" />
    <glyph glyph-name="numbersign" unicode="#" horiz-adv-x="1515" 
d="M213 0l84 408h-229v190h270l65 320h-247v190h288l86 408h228l-84 -408h295l86 408h227l-86 -408h252v-190h-291l-67 -320h270v-190h-309l-86 -408h-228l84 408h-295l-86 -408h-227zM565 598h297l66 320h-295z" />
    <glyph glyph-name="dollar" unicode="$" horiz-adv-x="1368" 
d="M602 -14q-332 31 -502 311l179 121q48 -68 90 -112.5t104 -79.5t137 -46v504q-83 21 -141.5 41t-124.5 55t-106.5 77.5t-67.5 108t-27 146.5q0 178 124 292.5t335 127.5v145h164v-149q157 -19 257 -87.5t171 -176.5l-174 -136q-56 85 -114 133t-146 64v-455
q63 -17 112 -32t102.5 -37.5t92.5 -47t76 -58.5t60 -73.5t36.5 -91t13.5 -112.5q0 -178 -124 -296t-363 -136v-176h-164v176zM610 1333q-114 -9 -171.5 -62t-57.5 -136q0 -89 56.5 -139t172.5 -85v422zM760 178q124 11 190 62t66 155q0 98 -63.5 154t-192.5 94v-465z" />
    <glyph glyph-name="percent" unicode="%" horiz-adv-x="2154" 
d="M485 580q-179 0 -280 130t-101 347q0 221 103.5 352t279.5 131t277.5 -129.5t101.5 -349.5q0 -217 -102 -349t-279 -132zM514 0l905 1516h221l-905 -1516h-221zM1669 -20q-179 0 -280 130t-101 347q0 220 103 350.5t280 130.5q174 0 276.5 -129t102.5 -348
q0 -217 -102.5 -349t-278.5 -132zM487 760q83 0 124.5 79t41.5 220q0 145 -42 222t-126 77t-126 -78t-42 -219q0 -145 42.5 -223t127.5 -78zM1669 158q84 0 126 80t42 221q0 145 -42 222t-126 77q-85 0 -127.5 -78t-42.5 -219q0 -145 42.5 -224t127.5 -79z" />
    <glyph glyph-name="ampersand" unicode="&#x26;" horiz-adv-x="1503" 
d="M578 -29q-244 0 -384.5 112.5t-140.5 291.5q0 85 27 156.5t78.5 126t109 94.5t135.5 79q-98 182 -98 340q0 74 24.5 140t72 118.5t125 83.5t175.5 31q91 0 162 -25.5t114 -70t65 -100t22 -119.5q0 -79 -28 -146t-82 -120t-113 -92t-140 -80q51 -74 111 -148
q114 -144 205 -235q95 145 123 362h223q-41 -288 -176 -485q141 -95 291 -95v-210q-136 3 -242.5 34t-206.5 99q-186 -142 -452 -142zM616 930q55 31 91.5 56t71.5 59t52 74.5t17 88.5q0 60 -38 101t-103 41q-78 0 -122 -40.5t-44 -123.5q0 -121 75 -256zM600 176
q158 0 262 68q-97 92 -239 270q-74 93 -125 166q-189 -120 -189 -272q0 -116 75.5 -174t215.5 -58z" />
    <glyph glyph-name="quotesingle" unicode="'" horiz-adv-x="514" 
d="M180 979l-35 401v136h224v-136l-35 -401h-154z" />
    <glyph glyph-name="parenleft" unicode="(" horiz-adv-x="821" 
d="M625 -420q-258 217 -388.5 458.5t-130.5 534.5q0 294 130 535t389 459l116 -125q-174 -175 -271 -395.5t-97 -473.5q0 -254 99 -476.5t276 -399.5z" />
    <glyph glyph-name="parenright" unicode=")" horiz-adv-x="821" 
d="M197 -420l-123 117q177 177 276 399.5t99 476.5q0 252 -97.5 472.5t-271.5 396.5l117 125q258 -217 388 -458.5t130 -535.5q0 -293 -130 -534.5t-388 -458.5z" />
    <glyph glyph-name="asterisk" unicode="*" horiz-adv-x="1040" 
d="M369 662l-146 83l201 291l-352 -24v159l354 -24l-203 291l146 86l151 -322l152 322l145 -86l-201 -291l353 24v-159l-353 24l201 -291l-143 -83l-154 319z" />
    <glyph glyph-name="plus" unicode="+" horiz-adv-x="1314" 
d="M553 168v430h-416v203h416v430h209v-430h418v-203h-418v-430h-209z" />
    <glyph glyph-name="comma" unicode="," horiz-adv-x="565" 
d="M178 -229l72 229h-109v266h283v-231l-129 -264h-117z" />
    <glyph glyph-name="hyphen" unicode="-" horiz-adv-x="731" 
d="M113 553v180h505v-180h-505z" />
    <glyph glyph-name="period" unicode="." horiz-adv-x="565" 
d="M141 0v266h283v-266h-283z" />
    <glyph glyph-name="slash" unicode="/" 
d="M47 0l881 1516h260l-881 -1516h-260z" />
    <glyph glyph-name="zero" unicode="0" horiz-adv-x="1388" 
d="M696 -29q-282 0 -442 214t-160 573t160 572.5t442 213.5q188 0 323.5 -98t205 -274.5t69.5 -413.5t-69.5 -413.5t-205 -275t-323.5 -98.5zM696 197q167 0 254.5 140t87.5 421q0 278 -89.5 417.5t-252.5 139.5q-346 0 -346 -557q0 -279 90.5 -420t255.5 -141z" />
    <glyph glyph-name="one" unicode="1" horiz-adv-x="917" 
d="M88 0v225h279v1030q-57 -30 -133.5 -49.5t-141.5 -19.5v231q183 6 283 99h241v-1291h248v-225h-776z" />
    <glyph glyph-name="two" unicode="2" 
d="M72 0v33q0 71 11 131.5t41.5 130.5t82.5 135.5t137.5 139.5t202.5 149q99 64 150 101.5t96 83.5t61 90t16 102q0 104 -64 161.5t-173 57.5q-100 0 -193 -58.5t-164 -164.5l-190 131q210 321 559 321q221 0 348 -117.5t127 -312.5q0 -73 -15.5 -132t-54.5 -121
t-109.5 -124.5t-178.5 -130.5q-182 -116 -276.5 -207.5t-114.5 -173.5h757v-225h-1056z" />
    <glyph glyph-name="three" unicode="3" horiz-adv-x="1249" 
d="M600 -29q-180 0 -323 68t-240 199l178 143q140 -184 381 -184q145 0 226 57.5t81 175.5q0 140 -102 201t-320 61h-69v209h75q109 0 183.5 15.5t115.5 45.5t58.5 68.5t17.5 91.5q0 94 -61.5 142.5t-198.5 48.5q-97 0 -190 -38.5t-160 -107.5l-150 160q95 100 233 157.5
t292 57.5q237 0 362 -104t125 -279q0 -136 -72.5 -227.5t-205.5 -126.5q321 -65 321 -385q0 -204 -152 -326.5t-405 -122.5z" />
    <glyph glyph-name="four" unicode="4" horiz-adv-x="1325" 
d="M786 0v311h-737v201l690 1004h295v-984h256v-221h-256v-311h-248zM326 532h460v678h-4z" />
    <glyph glyph-name="five" unicode="5" horiz-adv-x="1224" 
d="M592 -29q-169 0 -309 61.5t-236 168.5l158 168q87 -82 176 -127t199 -45q161 0 243 83.5t82 221.5q0 147 -78.5 222t-218.5 75q-194 0 -307 -146l-170 56l59 807h873l-19 -226h-655l-31 -391q106 113 318 113q225 0 354 -137.5t129 -364.5q0 -240 -153.5 -389.5
t-413.5 -149.5z" />
    <glyph glyph-name="six" unicode="6" horiz-adv-x="1302" 
d="M680 -29q-269 0 -427.5 195t-158.5 565q0 157 34 289.5t94.5 228t143 163t179.5 100t205 32.5q119 0 220.5 -35t170.5 -88l-123 -188q-126 88 -279 88q-172 0 -278 -140.5t-115 -379.5q182 164 399 164q222 0 353 -124.5t131 -353.5q0 -149 -74.5 -268t-199.5 -183.5
t-275 -64.5zM692 188q138 0 215.5 78t77.5 213q0 273 -287 273q-103 0 -200.5 -44t-149.5 -106q14 -212 104.5 -313t239.5 -101z" />
    <glyph glyph-name="seven" unicode="7" horiz-adv-x="1112" 
d="M197 0l604 1290h-746v226h1010v-209l-606 -1307h-262z" />
    <glyph glyph-name="eight" unicode="8" horiz-adv-x="1280" 
d="M641 -35q-271 0 -426.5 115t-155.5 301q0 142 95.5 242.5t267.5 173.5q-149 72 -221 154.5t-72 215.5q0 72 34 140t96 122.5t161.5 87.5t220.5 33q124 0 223.5 -33t160.5 -87.5t93.5 -122t32.5 -140.5q0 -232 -293 -364q90 -39 151 -75.5t112 -86t75.5 -114t24.5 -146.5
q0 -185 -155.5 -300.5t-424.5 -115.5zM657 891q134 62 190 118.5t56 139.5q0 80 -66 136t-196 56q-128 0 -196 -54t-68 -134q0 -88 65 -144t215 -118zM641 172q149 0 236.5 59.5t87.5 163.5q0 98 -80 166t-262 141q-159 -73 -233.5 -143t-74.5 -164q0 -101 88.5 -162
t237.5 -61z" />
    <glyph glyph-name="nine" unicode="9" horiz-adv-x="1302" 
d="M553 -29q-119 0 -220.5 35t-170.5 88l123 189q133 -93 278 -93q171 0 277.5 142.5t115.5 382.5q-182 -164 -399 -164q-222 0 -352.5 124t-130.5 353q0 149 74.5 268t199.5 183.5t275 64.5q269 0 427 -195t158 -565q0 -157 -34 -289.5t-94 -228t-142.5 -163t-179.5 -100
t-205 -32.5zM604 764q103 0 200.5 43.5t149.5 105.5q-14 211 -104.5 310.5t-239.5 99.5q-138 0 -215.5 -76t-77.5 -211q0 -272 287 -272z" />
    <glyph glyph-name="colon" unicode=":" horiz-adv-x="583" 
d="M152 819v268h280v-268h-280zM152 0v266h280v-266h-280z" />
    <glyph glyph-name="semicolon" unicode=";" horiz-adv-x="583" 
d="M152 819v268h280v-268h-280zM184 -229l72 229h-104v266h280v-227l-131 -268h-117z" />
    <glyph glyph-name="less" unicode="&#x3c;" horiz-adv-x="1314" 
d="M1200 119l-1083 471v147l1083 471v-213l-809 -331l809 -332v-213z" />
    <glyph glyph-name="equal" unicode="=" horiz-adv-x="1314" 
d="M139 809v186h1035v-186h-1035zM139 342v186h1035v-186h-1035z" />
    <glyph glyph-name="greater" unicode="&#x3e;" horiz-adv-x="1314" 
d="M123 119v213l809 332l-809 331v213l1083 -471v-147z" />
    <glyph glyph-name="question" unicode="?" horiz-adv-x="1171" 
d="M434 449q-6 49 -6 143q0 109 51 186t150 133q112 65 153 111.5t41 130.5q0 77 -62 121.5t-173 44.5q-106 0 -199.5 -51t-157.5 -125l-161 145q213 256 540 256q223 0 344 -102.5t121 -270.5q0 -57 -13 -105.5t-34.5 -84t-55 -68.5t-67.5 -56t-80 -48t-76 -45t-51.5 -45.5
t-32 -45.5t-16.5 -59t-7 -70.5t-1 -94.5h-207zM397 0v256h281v-256h-281z" />
    <glyph glyph-name="at" unicode="@" horiz-adv-x="1777" 
d="M877 -29q-233 0 -412 100t-276 278.5t-97 406.5q0 227 101.5 407t284 280.5t413.5 100.5q232 0 413 -97.5t281.5 -272t100.5 -396.5q0 -211 -102.5 -337t-276.5 -126q-215 0 -263 154q-135 -135 -327 -135q-131 0 -209 82.5t-78 236.5q0 242 117 396.5t291 154.5
q152 0 247 -106l15 90h196l-96 -608q-11 -71 23 -110.5t110 -39.5q102 0 167 89.5t65 252.5q0 290 -187.5 472.5t-486.5 182.5t-485.5 -187.5t-186.5 -483.5q0 -298 183.5 -487t480.5 -189q227 0 399 106l55 -88q-195 -127 -460 -127zM788 487q114 0 218 101l57 362
q-42 48 -87 69t-106 21q-109 0 -175 -108t-66 -258q0 -95 38.5 -141t120.5 -46z" />
    <glyph glyph-name="A" unicode="A" horiz-adv-x="1427" 
d="M51 0l537 1522h252l536 -1522h-262l-123 360h-575l-125 -360h-240zM494 586h421l-206 614h-4z" />
    <glyph glyph-name="B" unicode="B" horiz-adv-x="1437" 
d="M172 0v1516h573q118 0 211.5 -20t166 -63.5t112 -117.5t39.5 -176q0 -151 -72.5 -237t-195.5 -111v-5q313 -59 313 -370q0 -202 -148 -309t-389 -107h-610zM424 883h297q153 0 230 50t77 157q0 108 -71.5 154t-231.5 46h-301v-407zM424 221h332q162 0 236.5 53.5
t74.5 167.5q0 118 -85.5 171t-252.5 53h-305v-445z" />
    <glyph glyph-name="C" unicode="C" horiz-adv-x="1468" 
d="M764 -29q-147 0 -268.5 51t-210.5 148.5t-138 248.5t-49 343q0 186 50.5 335.5t140 246.5t210.5 148.5t265 51.5q472 0 588 -471l-244 -69q-45 158 -123 230.5t-223 72.5q-192 0 -299 -142.5t-107 -400.5q0 -268 108.5 -413.5t301.5 -145.5q148 0 234.5 77.5t129.5 247.5
l244 -55q-58 -238 -208 -371t-402 -133z" />
    <glyph glyph-name="D" unicode="D" horiz-adv-x="1490" 
d="M172 0v1516h432q182 0 324 -43.5t247 -133t160.5 -235t55.5 -340.5q0 -199 -56.5 -347t-162 -238.5t-247 -134.5t-321.5 -44h-432zM428 229h199q263 0 385.5 125.5t122.5 409.5q0 271 -124 392.5t-388 121.5h-195v-1049z" />
    <glyph glyph-name="E" unicode="E" horiz-adv-x="1271" 
d="M172 0v1516h979v-238h-723v-377h530v-227h-530v-441h764v-233h-1020z" />
    <glyph glyph-name="F" unicode="F" horiz-adv-x="1183" 
d="M172 0v1516h954v-238h-698v-406h506v-227h-506v-645h-256z" />
    <glyph glyph-name="G" unicode="G" horiz-adv-x="1525" 
d="M745 -29q-159 0 -283.5 58.5t-203.5 164.5t-119.5 250.5t-40.5 319.5q0 361 182 570.5t486 209.5q463 0 588 -477l-238 -63q-50 167 -132 235t-220 68q-58 0 -112 -14.5t-109 -52.5t-95.5 -96.5t-66 -154.5t-25.5 -219t23 -221.5t62 -162.5t93 -106.5t113.5 -60.5
t126.5 -18q153 0 247.5 88.5t106.5 253.5h-305v207h551v-750h-211v219h-4q-19 -44 -52.5 -85.5t-83.5 -79t-122.5 -60.5t-155.5 -23z" />
    <glyph glyph-name="H" unicode="H" horiz-adv-x="1544" 
d="M172 0v1516h256v-605h688v605h256v-1516h-256v674h-688v-674h-256z" />
    <glyph glyph-name="I" unicode="I" horiz-adv-x="634" 
d="M188 0v1516h258v-1516h-258z" />
    <glyph glyph-name="J" unicode="J" horiz-adv-x="1064" 
d="M449 -29q-249 0 -412 174l160 158q108 -108 235 -108q113 0 170 57.5t57 202.5v1061h256v-1096q0 -213 -122 -331t-344 -118z" />
    <glyph glyph-name="K" unicode="K" horiz-adv-x="1429" 
d="M172 0v1516h256v-705l596 705h303l-516 -584l580 -932h-293l-455 735l-215 -237v-498h-256z" />
    <glyph glyph-name="L" unicode="L" horiz-adv-x="1183" 
d="M172 0v1516h256v-1283h698v-233h-954z" />
    <glyph glyph-name="M" unicode="M" horiz-adv-x="1828" 
d="M172 0v1516h338l405 -1203h5l393 1203h344v-1516h-248v1130h-4q-24 -110 -90 -309l-295 -821h-227l-293 821q-58 171 -92 320h-5v-1141h-231z" />
    <glyph glyph-name="N" unicode="N" horiz-adv-x="1562" 
d="M172 0v1516h260l717 -1082h4v1082h238v-1516h-234l-743 1104h-4v-1104h-238z" />
    <glyph glyph-name="O" unicode="O" horiz-adv-x="1564" 
d="M784 -29q-145 0 -269.5 52t-217.5 149.5t-146 248t-53 337.5t53 337.5t146 247.5t217.5 149t269.5 52t268.5 -52t216 -149t145 -247.5t52.5 -337.5t-52.5 -337.5t-145 -248t-216.5 -149.5t-268 -52zM784 203q194 0 309 146t115 409q0 262 -115 406.5t-309 144.5
q-197 0 -312.5 -144t-115.5 -407t115.5 -409t312.5 -146z" />
    <glyph glyph-name="P" unicode="P" horiz-adv-x="1357" 
d="M172 0v1516h530q102 0 187 -14.5t160 -48.5t126.5 -86.5t81 -132.5t29.5 -183q0 -107 -32 -190t-86 -136.5t-131.5 -87.5t-161 -48t-181.5 -14h-268v-575h-254zM426 799h281q171 0 249 57t78 186q0 126 -79 183t-250 57h-279v-483z" />
    <glyph glyph-name="Q" unicode="Q" horiz-adv-x="1564" 
d="M1116 -395q-231 0 -352.5 105t-126.5 280q-116 21 -214 82.5t-171.5 157.5t-114.5 231.5t-41 296.5q0 186 55.5 337t150 248t218 149t262.5 52q138 0 260.5 -52t217 -149t149.5 -248t55 -337q0 -166 -43.5 -305t-120.5 -235t-179.5 -156t-223.5 -78q9 -43 28.5 -73
t44 -47.5t66 -27t82 -12t103.5 -2.5h104v-217h-209zM782 199q193 0 308.5 148t115.5 411q0 262 -115 406.5t-309 144.5q-197 0 -312.5 -144t-115.5 -407q0 -264 116 -411.5t312 -147.5z" />
    <glyph glyph-name="R" unicode="R" horiz-adv-x="1415" 
d="M172 0v1516h543q275 0 422 -113.5t147 -341.5q0 -349 -336 -430l357 -631h-275l-340 598h-266v-598h-252zM424 821h281q168 0 247.5 52t79.5 182q0 126 -80 176.5t-250 50.5h-278v-461z" />
    <glyph glyph-name="S" unicode="S" horiz-adv-x="1380" 
d="M702 -29q-220 0 -378 104t-232 281l203 107q133 -264 418 -264q144 0 226.5 48.5t82.5 147.5q0 96 -76 153t-268 114q-76 22 -122.5 37t-109 39.5t-100.5 47.5t-79.5 57t-64 72t-37.5 89t-15 112q0 193 143.5 310.5t374.5 117.5q210 0 350.5 -89t216.5 -236l-186 -129
q-131 221 -383 221q-127 0 -196 -44.5t-69 -127.5q0 -42 14.5 -74.5t39 -57t72 -47.5t98 -40.5t133.5 -42.5q69 -20 119.5 -37t107.5 -41.5t97 -49.5t78.5 -59.5t62 -74t37.5 -90.5t14 -111q0 -192 -154.5 -317.5t-417.5 -125.5z" />
    <glyph glyph-name="T" unicode="T" horiz-adv-x="1300" 
d="M522 0v1278h-467v238h1190v-238h-467v-1278h-256z" />
    <glyph glyph-name="U" unicode="U" horiz-adv-x="1476" 
d="M739 -25q-153 0 -267.5 41.5t-183.5 119t-102.5 181.5t-33.5 236v963h256v-941q0 -368 333 -368q332 0 332 366v943h252v-961q0 -174 -64 -303t-197.5 -203t-324.5 -74z" />
    <glyph glyph-name="V" unicode="V" horiz-adv-x="1396" 
d="M578 -6l-527 1522h260l391 -1182h5l397 1182h242l-527 -1522h-241z" />
    <glyph glyph-name="W" unicode="W" horiz-adv-x="1933" 
d="M463 0l-404 1516h258l193 -785q61 -236 80 -352h4q23 137 78 350l182 787h246l188 -791q59 -232 80 -346h4q10 59 21 109.5t28 122.5t25 108l188 797h240l-399 -1516h-224l-272 1161h-4l-287 -1161h-225z" />
    <glyph glyph-name="X" unicode="X" horiz-adv-x="1427" 
d="M66 0l503 805l-450 711h293l315 -508l305 508h266l-442 -711l506 -805h-283l-374 600l-371 -600h-268z" />
    <glyph glyph-name="Y" unicode="Y" horiz-adv-x="1353" 
d="M547 0v653l-516 863h270l379 -646l377 646h266l-518 -863v-653h-258z" />
    <glyph glyph-name="Z" unicode="Z" horiz-adv-x="1320" 
d="M72 0v178l837 1122h-782v216h1104v-185l-828 -1122h828v-209h-1159z" />
    <glyph glyph-name="bracketleft" unicode="[" horiz-adv-x="862" 
d="M158 -410v1926h630v-181h-376v-1564h376v-181h-630z" />
    <glyph glyph-name="backslash" unicode="\" horiz-adv-x="1193" 
d="M907 0l-880 1516h260l880 -1516h-260z" />
    <glyph glyph-name="bracketright" unicode="]" horiz-adv-x="862" 
d="M74 -410v181h377v1562h-377v183h631v-1926h-631z" />
    <glyph glyph-name="asciicircum" unicode="^" horiz-adv-x="1095" 
d="M197 1202l264 340h174l264 -340h-147l-205 172l-205 -172h-145z" />
    <glyph glyph-name="underscore" unicode="_" horiz-adv-x="1024" 
d="M0 -297v182h1024v-182h-1024z" />
    <glyph glyph-name="grave" unicode="`" horiz-adv-x="1024" 
d="M537 1202l-297 340h272l193 -340h-168z" />
    <glyph glyph-name="a" unicode="a" horiz-adv-x="1157" 
d="M379 -16q-136 0 -221.5 73.5t-85.5 204.5q0 183 169 296t539 155v32q0 81 -43.5 118.5t-134.5 37.5q-183 0 -366 -147l-123 157q96 87 231 142t293 55q211 0 301 -97.5t90 -295.5v-449q0 -192 31 -266h-254q-25 80 -25 139q-81 -83 -178.5 -119t-222.5 -36zM471 178
q177 0 309 125v240q-461 -63 -461 -234q0 -63 41 -97t111 -34z" />
    <glyph glyph-name="b" unicode="b" horiz-adv-x="1251" 
d="M705 -16q-89 0 -171 35.5t-141 101.5v-121h-252v1516h252v-572q137 164 346 164q194 0 312 -144.5t118 -418.5q0 -276 -124.5 -418.5t-339.5 -142.5zM649 184q141 0 205 87.5t64 271.5q0 170 -69 260t-192 90q-74 0 -145 -39.5t-119 -97.5v-437q50 -65 118.5 -100
t137.5 -35z" />
    <glyph glyph-name="c" unicode="c" horiz-adv-x="1116" 
d="M588 -23q-77 0 -149.5 20.5t-138 65t-114.5 109.5t-77.5 160.5t-28.5 210.5q0 120 31.5 218t82.5 161t120 106t140.5 61.5t147.5 18.5q97 0 174 -25t129 -71.5t86.5 -99t61.5 -121.5l-213 -76q-64 182 -242 182q-117 0 -190.5 -85.5t-73.5 -268.5q0 -173 67.5 -266
t192.5 -93q93 0 152.5 40t101.5 149l209 -76q-31 -70 -70 -124t-94.5 -100.5t-132.5 -71t-172 -24.5z" />
    <glyph glyph-name="d" unicode="d" horiz-adv-x="1251" 
d="M512 -16q-194 0 -312 142t-118 415q0 276 125 421.5t340 145.5q89 0 170.5 -35t140.5 -102v545h252v-1250q0 -193 33 -266h-260q-25 55 -25 147q-142 -163 -346 -163zM594 190q74 0 145 40t119 98v436q-50 65 -118.5 100t-137.5 35q-140 0 -204 -89.5t-64 -274.5
q0 -169 68.5 -257t191.5 -88z" />
    <glyph glyph-name="e" unicode="e" horiz-adv-x="1155" 
d="M604 -23q-105 0 -197 33t-166.5 99.5t-117.5 178t-43 255.5q0 119 32.5 217t85 161.5t121.5 106.5t138.5 61.5t140.5 18.5q76 0 143.5 -18.5t129.5 -62t106.5 -109.5t71 -167.5t26.5 -230.5v-59h-743q7 -142 86 -212.5t205 -70.5q100 0 169.5 31t135.5 96l133 -131
q-178 -197 -457 -197zM336 649h508q-21 254 -248 254q-100 0 -171 -62t-89 -192z" />
    <glyph glyph-name="f" unicode="f" horiz-adv-x="765" 
d="M236 0v887h-189v200h189v111q0 72 16.5 128t55 101.5t109.5 70t171 24.5q50 0 149 -11v-194q-32 8 -86 8q-77 0 -120.5 -30t-43.5 -111v-97h238v-200h-238v-887h-251z" />
    <glyph glyph-name="g" unicode="g" horiz-adv-x="1202" 
d="M551 -422q-270 0 -397 70.5t-127 195.5q0 80 46.5 138.5t131.5 91.5q-84 44 -84 133q0 111 147 199q-83 53 -127.5 133t-44.5 180q0 171 123.5 280t333.5 109q205 0 334 -115q53 41 128 71t142 36v-205q-99 0 -190 -29q39 -61 39 -147q0 -173 -122 -280t-331 -107
q-69 0 -152 22q-55 -30 -55 -69q0 -32 26.5 -46t98.5 -20l193 -12q240 -15 344 -84.5t104 -212.5q0 -163 -150.5 -247.5t-410.5 -84.5zM557 506q104 0 161.5 53t57.5 152q0 101 -57 155t-164 54q-105 0 -163 -55t-58 -154t59 -152t164 -53zM590 -240q138 0 218.5 34t80.5 93
q0 40 -23.5 63.5t-82.5 37t-171 20.5l-188 12q-26 0 -66 7q-100 -46 -100 -140q0 -70 80 -98.5t252 -28.5z" />
    <glyph glyph-name="h" unicode="h" 
d="M141 0v1516h254v-576q65 69 165 118.5t233 49.5q145 0 229 -85t84 -243v-780h-254v717q0 91 -39.5 133.5t-122.5 42.5q-141 0 -295 -141v-752h-254z" />
    <glyph glyph-name="i" unicode="i" horiz-adv-x="557" 
d="M150 1276v219h258v-219h-258zM152 0v1087h254v-1087h-254z" />
    <glyph glyph-name="j" unicode="j" horiz-adv-x="557" 
d="M150 1276v219h258v-219h-258zM102 -414q-33 0 -86.5 5t-66.5 8v176q36 -8 82 -8q61 0 91 32.5t30 104.5v1183h254v-1222q0 -61 -12.5 -107.5t-44.5 -87.5t-94 -62.5t-153 -21.5z" />
    <glyph glyph-name="k" unicode="k" horiz-adv-x="1153" 
d="M141 0v1516h252v-904l412 475h276l-354 -397l385 -690h-264l-281 504l-174 -191v-313h-252z" />
    <glyph glyph-name="l" unicode="l" horiz-adv-x="557" 
d="M152 0v1516h254v-1516h-254z" />
    <glyph glyph-name="m" unicode="m" horiz-adv-x="1892" 
d="M141 0v1087h252v-149q155 170 373 170q128 0 195 -45t102 -133q163 178 381 178q160 0 238.5 -87.5t78.5 -240.5v-780h-252v717q0 94 -33 135t-120 41q-71 0 -135.5 -35.5t-143.5 -105.5v-752h-252v717q0 94 -33 135t-120 41q-70 0 -135.5 -35.5t-143.5 -105.5v-752h-252
z" />
    <glyph glyph-name="n" unicode="n" 
d="M141 0v1087h254v-147q65 69 165 118.5t233 49.5q145 0 229 -85t84 -243v-780h-254v717q0 91 -39.5 133.5t-122.5 42.5q-141 0 -295 -141v-752h-254z" />
    <glyph glyph-name="o" unicode="o" horiz-adv-x="1220" 
d="M610 -23q-81 0 -156.5 20.5t-144 65t-119 109.5t-80.5 160.5t-30 210.5q0 117 29.5 212.5t80 160t119 108.5t144 64t157.5 20q81 0 156.5 -20t144.5 -64t119.5 -108.5t80.5 -160t30 -212.5q0 -143 -45.5 -255t-122 -178t-169 -99.5t-194.5 -33.5zM610 188q135 0 206 93
t71 262q0 159 -70 254.5t-207 95.5q-135 0 -205.5 -92t-70.5 -258q0 -163 68.5 -259t207.5 -96z" />
    <glyph glyph-name="p" unicode="p" horiz-adv-x="1251" 
d="M141 -410v1497h252v-143q137 164 346 164q194 0 312 -144.5t118 -418.5q0 -276 -124.5 -418.5t-339.5 -142.5q-89 0 -171 35.5t-141 101.5v-531h-252zM649 184q141 0 205 87.5t64 271.5q0 170 -69 260t-192 90q-74 0 -145 -39.5t-119 -97.5v-437q50 -65 118.5 -100
t137.5 -35z" />
    <glyph glyph-name="q" unicode="q" horiz-adv-x="1251" 
d="M858 -410v557q-142 -163 -346 -163q-194 0 -312 142t-118 415q0 276 125 421.5t340 145.5q89 0 170.5 -35t140.5 -102v116h252v-1497h-252zM594 190q74 0 145 40t119 98v436q-50 65 -118.5 100t-137.5 35q-140 0 -204 -89.5t-64 -274.5q0 -169 68.5 -257t191.5 -88z" />
    <glyph glyph-name="r" unicode="r" horiz-adv-x="843" 
d="M141 0v1087h252v-178h4q124 199 391 199h17l-8 -231q-24 4 -68 4q-217 0 -336 -193v-688h-252z" />
    <glyph glyph-name="s" unicode="s" horiz-adv-x="1071" 
d="M539 -23q-147 0 -275.5 48t-204.5 125l138 153q67 -57 155.5 -93t186.5 -36q217 0 217 125q0 21 -8 38.5t-27 31.5t-36 23.5t-51.5 20t-55.5 16t-64 15.5q-164 38 -234 71q-169 81 -176 257v16q0 143 112 231.5t292 88.5q147 0 250.5 -39t195.5 -115l-120 -163
q-61 50 -148 84t-160 34q-184 0 -184 -110q0 -26 13.5 -46.5t32 -34t54 -26t63 -19.5t75.5 -18q164 -36 234 -69q172 -80 179 -257v-16q0 -83 -36 -148.5t-98.5 -106t-143.5 -61t-176 -20.5z" />
    <glyph glyph-name="t" unicode="t" horiz-adv-x="825" 
d="M563 -14q-102 0 -168.5 18t-103 58t-50.5 92t-14 131v602h-188v200h188v379h252v-379h281v-200h-281v-539q0 -90 34 -127t126 -37q62 0 109 15v-199q-63 -14 -185 -14z" />
    <glyph glyph-name="u" unicode="u" 
d="M442 -20q-145 0 -229 84.5t-84 242.5v780h254v-720q0 -91 39.5 -134t122.5 -43q78 0 148.5 36.5t146.5 105.5v755h254v-1087h-254v147q-65 -69 -165 -118t-233 -49z" />
    <glyph glyph-name="v" unicode="v" horiz-adv-x="1079" 
d="M412 -2l-394 1089h265l266 -802h4l264 802h244l-393 -1089h-256z" />
    <glyph glyph-name="w" unicode="w" horiz-adv-x="1562" 
d="M348 0l-323 1087h256l118 -450q44 -164 82 -346h4q49 216 86 350l115 446h205l121 -454q34 -117 84 -342h4q52 223 86 338l123 458h229l-324 -1087h-235l-197 756h-4l-196 -756h-234z" />
    <glyph glyph-name="x" unicode="x" horiz-adv-x="1091" 
d="M39 0l379 561l-352 526h268l227 -348l219 348h260l-356 -526l377 -561h-268l-250 381l-246 -381h-258z" />
    <glyph glyph-name="y" unicode="y" horiz-adv-x="1120" 
d="M256 -422q-133 0 -258 33l57 203q89 -23 185 -23q67 0 106.5 28.5t65.5 94.5l30 80l-417 1093h262l280 -792h4l279 792h250l-463 -1206q-58 -154 -143.5 -228.5t-237.5 -74.5z" />
    <glyph glyph-name="z" unicode="z" horiz-adv-x="1064" 
d="M70 0v145l579 742h-536v200h852v-151l-582 -741h616v-195h-929z" />
    <glyph glyph-name="braceleft" unicode="{" horiz-adv-x="851" 
d="M567 -410q-138 0 -209 78t-71 215v334q0 75 -13.5 123.5t-43.5 75t-70 37t-101 10.5v180q61 0 101 10.5t70 37t43.5 75t13.5 123.5v334q0 137 71 215t209 78h224v-181h-91q-159 0 -159 -159v-316q0 -143 -42 -209t-132 -96v-4q90 -30 132 -96t42 -209v-316
q0 -159 159 -159h91v-181h-224z" />
    <glyph glyph-name="bar" unicode="|" horiz-adv-x="772" 
d="M262 -410v1926h248v-1926h-248z" />
    <glyph glyph-name="braceright" unicode="}" horiz-adv-x="851" 
d="M61 -410v181h91q159 0 159 159v336q0 74 11 123.5t35.5 81t53 48.5t74.5 32v4q-46 15 -74.5 32t-53 48.5t-35.5 81t-11 123.5v336q0 163 -155 163h-90l-5 177h244q138 0 199 -68t61 -205v-354q0 -75 13.5 -123.5t43.5 -75t70 -37t101 -10.5v-180q-61 0 -101 -10.5
t-70 -37t-43.5 -75t-13.5 -123.5v-354q0 -137 -61 -205t-199 -68h-244z" />
    <glyph glyph-name="asciitilde" unicode="~" horiz-adv-x="1054" 
d="M682 799q-46 0 -91.5 18t-75.5 39t-66 39t-64 18q-44 0 -64 -25.5t-20 -84.5h-143q0 284 215 284q45 0 91 -18t76.5 -39t66.5 -39t65 -18q42 0 63 25.5t21 84.5h141q0 -284 -215 -284z" />
    <glyph glyph-name="nbspace" unicode="&#xa0;" horiz-adv-x="256" 
 />
    <glyph glyph-name="exclamdown" unicode="&#xa1;" horiz-adv-x="694" 
d="M201 1260v256h282v-256h-282zM184 0l68 1063h180l68 -1063h-316z" />
    <glyph glyph-name="cent" unicode="&#xa2;" horiz-adv-x="1124" 
d="M348 35q-122 66 -195 194t-73 314q0 117 31 214t82.5 161t120 107.5t141 63t147.5 19.5q37 0 53 -2l58 201h139l-66 -228q182 -64 271 -288l-203 -76q-44 125 -133 164l-197 -693q27 -8 70 -8q92 0 157.5 43t110.5 152l199 -76q-143 -320 -473 -320q-52 0 -115 13
l-72 -254h-141zM602 901h-4q-57 0 -105 -18.5t-89.5 -58.5t-65 -112t-23.5 -169q0 -205 99 -301z" />
    <glyph glyph-name="sterling" unicode="&#xa3;" horiz-adv-x="1345" 
d="M463 690h-281v168h185q-88 154 -88 281q0 177 118 291t314 114q94 0 168.5 -22.5t123 -59t84 -90t53.5 -106.5t29 -117l-227 -43q-13 107 -64.5 167t-160.5 60q-93 0 -143 -53t-50 -139q0 -47 18.5 -102t32.5 -82t54 -99h358v-168h-278q43 -108 43 -231q0 -117 -41 -213
q109 -70 192 -70q98 0 134.5 49t41.5 176h224q0 -72 -11 -133t-37 -117t-66.5 -95t-103.5 -62t-143 -23q-174 0 -332 125q-125 -125 -315 -125q-102 0 -178 58.5t-76 167.5q0 118 74 185t194 67q98 0 221 -74q2 20 2 63q0 118 -69 252zM479 209q-102 88 -168 88
q-47 0 -74.5 -26t-27.5 -68q0 -40 28 -66t72 -26q111 0 170 98z" />
    <glyph glyph-name="currency" unicode="&#xa4;" horiz-adv-x="1492" 
d="M268 819h-225v170h244q33 185 119.5 312t202.5 185t257 58q111 0 198 -29.5t148.5 -86.5t103 -131t70.5 -173l-221 -75q-44 147 -106.5 210.5t-190.5 63.5t-214 -84t-119 -250h380v-170h-399v-53q0 -59 2 -88h397v-172h-376q33 -159 114 -238.5t219 -79.5q121 0 193 70
t115 227l225 -67q-62 -213 -195.5 -330t-339.5 -117q-222 0 -375 134t-204 401h-248v172h227q-2 27 -2 84v57z" />
    <glyph glyph-name="yen" unicode="&#xa5;" horiz-adv-x="1343" 
d="M543 0v199h-377v170h377v143h-377v170h371l-498 834h268l367 -625l366 625h265l-502 -834h377v-170h-381v-143h381v-170h-381v-199h-256z" />
    <glyph glyph-name="brokenbar" unicode="&#xa6;" horiz-adv-x="772" 
d="M262 678v838h248v-838h-248zM262 -410v838h248v-838h-248z" />
    <glyph glyph-name="section" unicode="&#xa7;" horiz-adv-x="1148" 
d="M573 -410q-86 0 -154.5 16.5t-114.5 43t-81 66t-54.5 79t-33.5 88.5l189 78q30 -92 84 -137t155 -45q174 0 174 141q0 65 -58 119.5t-196 132.5q-57 33 -90.5 53.5t-78.5 50.5t-71 53t-55 54.5t-44 61.5t-25 68t-10 79q0 108 65 190.5t158 135.5q-89 69 -125.5 133
t-36.5 151q0 143 110 242.5t295 99.5q87 0 157 -16.5t117 -43t83 -66t56 -79t34 -88.5l-199 -84q-29 89 -90.5 142t-146.5 53q-94 0 -139.5 -42t-45.5 -106q0 -63 60 -116.5t203 -134.5q55 -31 91.5 -52.5t79.5 -50.5t70.5 -53t55 -55t43 -62t25 -68t9.5 -79
q0 -108 -64.5 -192t-156.5 -136q85 -67 118.5 -131.5t33.5 -151.5q0 -144 -106 -243t-290 -99zM680 309q147 77 147 187q0 78 -55.5 133t-239.5 162q-4 2 -28.5 15t-36.5 19q-68 -36 -106.5 -84t-38.5 -102q0 -79 55 -133.5t239 -161.5q16 -9 64 -35z" />
    <glyph glyph-name="dieresis" unicode="&#xa8;" horiz-adv-x="1064" 
d="M616 1196v248h232v-248h-232zM213 1196v248h229v-248h-229z" />
    <glyph glyph-name="copyright" unicode="&#xa9;" horiz-adv-x="1771" 
d="M885 -29q-217 0 -397 104t-283 284t-103 397t104 398t285 285.5t398 104.5q162 0 307 -61t248.5 -165.5t164 -250t60.5 -307.5q0 -217 -103.5 -398t-284 -286t-396.5 -105zM889 90q183 0 332.5 88t234 240.5t84.5 337.5q0 138 -50.5 262t-137.5 213.5t-208.5 141.5
t-258.5 52q-138 0 -259.5 -51.5t-208 -140t-136.5 -211.5t-50 -262q0 -185 86 -338.5t237.5 -242.5t334.5 -89zM881 317q-165 0 -264 120t-99 329q0 204 99 324t268 120q135 0 217 -71.5t112 -200.5l-147 -39q-25 87 -66 129.5t-114 42.5q-95 0 -150 -83t-55 -222
q0 -143 54 -224t151 -81q74 0 119 45.5t67 138.5q146 -39 152 -39q-77 -289 -344 -289z" />
    <glyph glyph-name="ordfeminine" unicode="&#xaa;" horiz-adv-x="888" 
d="M311 745q-98 0 -159.5 52t-61.5 145q0 128 118.5 206t377.5 107v25q0 113 -119 113q-139 0 -260 -103l-88 105q148 141 373 141q276 0 276 -276v-312q0 -128 25 -188h-189q-15 50 -18 106q-121 -121 -275 -121zM375 889q116 0 211 88v172q-173 -22 -243.5 -65.5
t-70.5 -108.5q0 -42 28 -64t75 -22z" />
    <glyph glyph-name="guillemotleft" unicode="&#xab;" horiz-adv-x="1204" 
d="M874 0l-327 545l327 542h244l-315 -542l315 -545h-244zM391 0l-325 545l325 542h246l-313 -542l313 -545h-246z" />
    <glyph glyph-name="logicalnot" unicode="&#xac;" horiz-adv-x="1556" 
d="M330 309l-45 -4v193l59 -4l12 170l-336 -41v266l336 -41l-14 174l-57 -4v192l43 -4l-2 43h192l-4 -57l172 -12l-41 336h266l-41 -336l172 12l-4 57h193l-4 -43l45 4v-192l-60 4l-12 -174l336 41v-266l-336 41l12 -170l60 4v-193l-45 4l4 -47h-193l4 62l-172 12l41 -336
h-266l41 336l-172 -12l4 -62h-192zM870 1047v-199h197l-14 186zM686 848v199l-184 -13l-13 -186h197zM870 664v-195l185 12l12 183h-197zM502 481l184 -12v195h-197z" />
    <glyph glyph-name="registered" unicode="&#xae;" horiz-adv-x="1771" 
d="M885 -29q-217 0 -397 104t-283 284t-103 397t104 398t285 285.5t398 104.5q162 0 307 -61t248.5 -165.5t164 -250t60.5 -307.5q0 -217 -103.5 -398t-284 -286t-396.5 -105zM889 90q183 0 332.5 88t234 240.5t84.5 337.5q0 138 -50.5 262t-137.5 213.5t-208.5 141.5
t-258.5 52q-138 0 -259.5 -51.5t-208 -140t-136.5 -211.5t-50 -262q0 -185 86 -338.5t237.5 -242.5t334.5 -89zM586 344v858h317q154 0 238 -66.5t84 -195.5q0 -183 -174 -242l186 -354h-174l-172 334h-143v-334h-162zM748 801h147q84 0 127 31t43 100q0 127 -172 127h-145
v-258z" />
    <glyph glyph-name="macron" unicode="&#xaf;" horiz-adv-x="1024" 
d="M193 1255v187h638v-187h-638z" />
    <glyph glyph-name="degree" unicode="&#xb0;" horiz-adv-x="839" 
d="M420 920q-136 0 -226 88t-90 223t90 223t226 88t225.5 -87.5t89.5 -221.5q0 -135 -90 -224t-225 -89zM420 1051q74 0 121 49.5t47 130.5t-47 130.5t-121 49.5t-121 -49.5t-47 -130.5t47 -130.5t121 -49.5z" />
    <glyph glyph-name="plusminus" unicode="&#xb1;" horiz-adv-x="1902" 
d="M236 0v887h-189v200h189v111q0 148 77 236t248 88q42 0 141 -11v-194q-27 6 -75 6q-140 0 -140 -141v-95h383v99q0 71 17.5 129.5t54.5 106t101.5 74t152.5 26.5q40 0 139 -11v-194q-24 6 -75 6q-138 0 -138 -141v-95h211v-200h-211v-887h-252v887h-383v-887h-251z
M1503 0v1516h252v-1516h-252z" />
    <glyph glyph-name="twosuperior" unicode="&#xb2;" horiz-adv-x="952" 
d="M123 553v47q0 57 11.5 104.5t42 102.5t92 111.5t153.5 115.5q106 69 145 110t39 101q0 54 -32.5 84.5t-90.5 30.5q-126 0 -209 -154l-147 99q67 117 156 174t209 57q150 0 234.5 -78t84.5 -209q0 -95 -54 -172t-190 -157q-178 -104 -202 -197h450v-170h-692z" />
    <glyph glyph-name="threesuperior" unicode="&#xb3;" horiz-adv-x="952" 
d="M471 535q-118 0 -215.5 51.5t-159.5 148.5l131 109q95 -137 230 -137q83 0 124.5 37t41.5 98q0 74 -52.5 108.5t-171.5 34.5h-69v150h73q107 0 154 30t47 90q0 49 -34 78t-99 29q-117 0 -219 -107l-119 125q150 156 354 156q156 0 239 -70.5t83 -187.5q0 -74 -37.5 -129
t-114.5 -82q179 -55 179 -229q0 -140 -99 -221.5t-266 -81.5z" />
    <glyph glyph-name="acute" unicode="&#xb4;" horiz-adv-x="1024" 
d="M319 1202l193 340h272l-297 -340h-168z" />
    <glyph glyph-name="mu" unicode="&#xb5;" horiz-adv-x="1245" 
d="M141 -410v1497h252v-718q0 -92 39.5 -137.5t124.5 -45.5q78 0 147.5 36t147.5 106v759h252v-1087h-252v172q-146 -158 -311 -180q-98 -7 -148 33v-435h-252z" />
    <glyph glyph-name="paragraph" unicode="&#xb6;" horiz-adv-x="1290" 
d="M602 -410v1072q-242 5 -370 113t-128 310q0 188 124.5 309.5t344.5 121.5h580v-1926h-180v1731h-191v-1731h-180z" />
    <glyph glyph-name="periodcentered" unicode="&#xb7;" horiz-adv-x="575" 
d="M141 541v266h293v-266h-293z" />
    <glyph glyph-name="cedilla" unicode="&#xb8;" horiz-adv-x="1024" 
d="M528 -408q-166 0 -282 76l49 82q91 -61 211 -61q123 0 123 80q0 63 -74 63q-47 0 -94 -37l-74 35l53 170h117l-29 -100q48 30 125 30q61 0 103.5 -37.5t42.5 -103.5q0 -93 -76.5 -145t-194.5 -52z" />
    <glyph glyph-name="onesuperior" unicode="&#xb9;" horiz-adv-x="841" 
d="M170 549v170h168v590q-72 -29 -166 -29v174q68 2 111 15.5t73 43.5h189v-794h147v-170h-522z" />
    <glyph glyph-name="ordmasculine" unicode="&#xba;" horiz-adv-x="923" 
d="M463 745q-73 0 -138.5 23.5t-120 69.5t-86.5 124t-32 179q0 102 32 180.5t86.5 124t120 68t138.5 22.5t137.5 -22.5t119 -68t86.5 -124t32 -180.5q0 -101 -32 -179t-86 -124t-119.5 -69.5t-137.5 -23.5zM463 883q91 0 139.5 70.5t48.5 187.5q0 112 -47.5 185t-140.5 73
q-92 0 -141.5 -70.5t-49.5 -187.5q0 -113 47.5 -185.5t143.5 -72.5z" />
    <glyph glyph-name="guillemotright" unicode="&#xbb;" horiz-adv-x="1204" 
d="M567 0l314 545l-314 542h244l326 -542l-326 -545h-244zM84 0l315 545l-315 542h246l327 -542l-327 -545h-246z" />
    <glyph glyph-name="onequarter" unicode="&#xbc;" horiz-adv-x="2064" 
d="M170 549v170h168v590q-72 -29 -166 -29v174q68 2 111 15.5t73 43.5h189v-794h147v-170h-522zM487 0l908 1516h221l-907 -1516h-222zM1602 0v213h-439v131l428 623h215v-590h154v-164h-154v-213h-204zM1380 377h226v336z" />
    <glyph glyph-name="onehalf" unicode="&#xbd;" horiz-adv-x="2136" 
d="M170 549v170h168v590q-72 -29 -166 -29v174q68 2 111 15.5t73 43.5h189v-794h147v-170h-522zM487 0l908 1516h221l-907 -1516h-222zM1309 0v49q0 45 6.5 83t25.5 82t51.5 85t87 88t128.5 94q106 69 145 110t39 101q0 54 -32.5 84.5t-92.5 30.5q-123 0 -209 -154l-145 99
q67 117 155 174t207 57q150 0 235 -78t85 -209q0 -94 -54 -171.5t-190 -155.5q-181 -108 -201 -199h451v-170h-692z" />
    <glyph glyph-name="threequarters" unicode="&#xbe;" horiz-adv-x="2134" 
d="M471 535q-118 0 -215.5 51.5t-159.5 148.5l131 109q95 -137 230 -137q83 0 124.5 37t41.5 98q0 74 -52.5 108.5t-171.5 34.5h-69v150h73q107 0 154 30t47 90q0 49 -34 78t-99 29q-117 0 -219 -107l-119 125q150 156 354 156q156 0 239 -70.5t83 -187.5q0 -74 -37.5 -129
t-114.5 -82q179 -55 179 -229q0 -140 -99 -221.5t-266 -81.5zM559 0l905 1516h222l-906 -1516h-221zM1671 0v213h-438v131l428 623h215v-590h154v-164h-154v-213h-205zM1450 377h225v336z" />
    <glyph glyph-name="questiondown" unicode="&#xbf;" horiz-adv-x="1171" 
d="M494 1260v256h280v-256h-280zM561 -29q-223 0 -344 102.5t-121 270.5q0 71 18.5 127.5t55.5 99.5t77.5 73.5t98.5 62.5q46 25 76 45t51.5 45.5t32 45.5t16.5 59t7 70.5t1 94.5h207q6 -49 6 -143q0 -207 -200 -320q-58 -34 -88 -54.5t-58 -49.5t-38.5 -61t-10.5 -77
q0 -77 62 -121t174 -44q106 0 199 50.5t157 125.5l162 -146q-213 -256 -541 -256z" />
    <glyph glyph-name="Agrave" unicode="&#xc0;" horiz-adv-x="1427" 
d="M51 0l537 1522h252l536 -1522h-262l-123 360h-575l-125 -360h-240zM494 586h421l-206 614h-4zM646 1608l-297 340h272l193 -340h-168z" />
    <glyph glyph-name="Aacute" unicode="&#xc1;" horiz-adv-x="1427" 
d="M51 0l537 1522h252l536 -1522h-262l-123 360h-575l-125 -360h-240zM494 586h421l-206 614h-4zM616 1608l193 340h272l-297 -340h-168z" />
    <glyph glyph-name="Acircumflex" unicode="&#xc2;" horiz-adv-x="1427" 
d="M51 0l537 1522h252l536 -1522h-262l-123 360h-575l-125 -360h-240zM494 586h421l-206 614h-4zM363 1608l264 340h174l264 -340h-147l-205 172l-205 -172h-145z" />
    <glyph glyph-name="Atilde" unicode="&#xc3;" horiz-adv-x="1427" 
d="M51 0l537 1522h252l536 -1522h-262l-123 360h-575l-125 -360h-240zM494 586h421l-206 614h-4zM868 1594q-46 0 -91.5 18t-75.5 39.5t-66 39.5t-64 18q-43 0 -63.5 -26t-20.5 -85h-143q0 285 215 285q45 0 91 -18t76.5 -39.5t66.5 -39.5t65 -18q42 0 63 26t21 85h141
q0 -145 -56 -215t-159 -70z" />
    <glyph glyph-name="Adieresis" unicode="&#xc4;" horiz-adv-x="1427" 
d="M51 0l537 1522h252l536 -1522h-262l-123 360h-575l-125 -360h-240zM494 586h421l-206 614h-4zM796 1602v248h232v-248h-232zM393 1602v248h229v-248h-229z" />
    <glyph glyph-name="Aring" unicode="&#xc5;" horiz-adv-x="1427" 
d="M856 1477l520 -1477h-262l-123 360h-575l-125 -360h-240l520 1475q-67 61 -67 157q0 89 59 148t150 59t150 -59t59 -148q0 -95 -66 -155zM713 1528q43 0 71.5 29.5t28.5 74.5q0 44 -28.5 74.5t-71.5 30.5t-72 -30.5t-29 -74.5q0 -45 29 -74.5t72 -29.5zM494 586h421
l-206 614h-4z" />
    <glyph glyph-name="AE" unicode="&#xc6;" horiz-adv-x="2134" 
d="M41 0l862 1516h1108v-238h-723v-377h531v-227h-531v-441h764v-233h-1018v426h-495l-240 -426h-258zM666 651h368v652h-2z" />
    <glyph glyph-name="Ccedilla" unicode="&#xc7;" horiz-adv-x="1468" 
d="M770 -408q-169 0 -285 76l52 82q91 -61 211 -61t120 80q0 63 -73 63q-48 0 -95 -37l-71 35l45 145q-263 30 -419.5 235.5t-156.5 551.5q0 183 50.5 331.5t139.5 246.5t211 151t265 53q472 0 588 -471l-244 -69q-46 162 -124.5 243.5t-221.5 81.5q-190 0 -298 -152.5
t-108 -412.5q0 -271 109 -426.5t301 -155.5q145 0 232.5 87t131.5 261l244 -55q-57 -232 -200 -364.5t-383 -139.5l-21 -71q48 30 123 30q62 0 104.5 -37.5t42.5 -103.5q0 -93 -76.5 -145t-193.5 -52z" />
    <glyph glyph-name="Egrave" unicode="&#xc8;" horiz-adv-x="1271" 
d="M172 0v1516h979v-238h-723v-377h530v-227h-530v-441h764v-233h-1020zM633 1608l-297 340h272l193 -340h-168z" />
    <glyph glyph-name="Eacute" unicode="&#xc9;" horiz-adv-x="1271" 
d="M172 0v1516h979v-238h-723v-377h530v-227h-530v-441h764v-233h-1020zM514 1608l193 340h272l-297 -340h-168z" />
    <glyph glyph-name="Ecircumflex" unicode="&#xca;" horiz-adv-x="1271" 
d="M172 0v1516h979v-238h-723v-377h530v-227h-530v-441h764v-233h-1020zM310 1608l264 340h174l264 -340h-147l-205 172l-205 -172h-145z" />
    <glyph glyph-name="Edieresis" unicode="&#xcb;" horiz-adv-x="1271" 
d="M172 0v1516h979v-238h-723v-377h530v-227h-530v-441h764v-233h-1020zM753 1602v248h232v-248h-232zM350 1602v248h229v-248h-229z" />
    <glyph glyph-name="Igrave" unicode="&#xcc;" horiz-adv-x="634" 
d="M188 0v1516h258v-1516h-258zM256 1608l-297 340h272l193 -340h-168z" />
    <glyph glyph-name="Iacute" unicode="&#xcd;" horiz-adv-x="634" 
d="M188 0v1516h258v-1516h-258zM221 1608l193 340h272l-297 -340h-168z" />
    <glyph glyph-name="Icircumflex" unicode="&#xce;" horiz-adv-x="634" 
d="M188 0v1516h258v-1516h-258zM-34 1608l264 340h174l264 -340h-147l-205 172l-205 -172h-145z" />
    <glyph glyph-name="Idieresis" unicode="&#xcf;" horiz-adv-x="634" 
d="M188 0v1516h258v-1516h-258zM401 1602v248h232v-248h-232zM-2 1602v248h229v-248h-229z" />
    <glyph glyph-name="Eth" unicode="&#xd0;" horiz-adv-x="1490" 
d="M172 0v686h-149v197h149v633h432q182 0 324 -43.5t247 -133.5t160.5 -236.5t55.5 -344.5q0 -196 -56.5 -342.5t-161.5 -236.5t-247.5 -134.5t-321.5 -44.5h-432zM426 227h201q263 0 385.5 126.5t122.5 410.5q0 271 -124 392.5t-388 121.5h-197v-395h317v-197h-317v-459z
" />
    <glyph glyph-name="Ntilde" unicode="&#xd1;" horiz-adv-x="1562" 
d="M172 0v1516h260l717 -1082h4v1082h238v-1516h-234l-743 1104h-4v-1104h-238zM948 1594q-46 0 -91.5 18t-75.5 39.5t-66 39.5t-64 18q-43 0 -63.5 -26t-20.5 -85h-143q0 285 215 285q45 0 91 -18t76.5 -39.5t66.5 -39.5t65 -18q42 0 63 26t21 85h141q0 -145 -56 -215
t-159 -70z" />
    <glyph glyph-name="Ograve" unicode="&#xd2;" horiz-adv-x="1564" 
d="M784 -29q-145 0 -269.5 52t-217.5 149.5t-146 248t-53 337.5t53 337.5t146 247.5t217.5 149t269.5 52t268.5 -52t216 -149t145 -247.5t52.5 -337.5t-52.5 -337.5t-145 -248t-216.5 -149.5t-268 -52zM784 203q194 0 309 146t115 409q0 262 -115 406.5t-309 144.5
q-197 0 -312.5 -144t-115.5 -407t115.5 -409t312.5 -146zM740 1608l-297 340h272l193 -340h-168z" />
    <glyph glyph-name="Oacute" unicode="&#xd3;" horiz-adv-x="1564" 
d="M784 -29q-145 0 -269.5 52t-217.5 149.5t-146 248t-53 337.5t53 337.5t146 247.5t217.5 149t269.5 52t268.5 -52t216 -149t145 -247.5t52.5 -337.5t-52.5 -337.5t-145 -248t-216.5 -149.5t-268 -52zM784 203q194 0 309 146t115 409q0 262 -115 406.5t-309 144.5
q-197 0 -312.5 -144t-115.5 -407t115.5 -409t312.5 -146zM651 1608l193 340h272l-297 -340h-168z" />
    <glyph glyph-name="Ocircumflex" unicode="&#xd4;" horiz-adv-x="1564" 
d="M784 -29q-145 0 -269.5 52t-217.5 149.5t-146 248t-53 337.5t53 337.5t146 247.5t217.5 149t269.5 52t268.5 -52t216 -149t145 -247.5t52.5 -337.5t-52.5 -337.5t-145 -248t-216.5 -149.5t-268 -52zM784 203q194 0 309 146t115 409q0 262 -115 406.5t-309 144.5
q-197 0 -312.5 -144t-115.5 -407t115.5 -409t312.5 -146zM430 1608l264 340h174l264 -340h-147l-205 172l-205 -172h-145z" />
    <glyph glyph-name="Otilde" unicode="&#xd5;" horiz-adv-x="1564" 
d="M784 -29q-145 0 -269.5 52t-217.5 149.5t-146 248t-53 337.5t53 337.5t146 247.5t217.5 149t269.5 52t268.5 -52t216 -149t145 -247.5t52.5 -337.5t-52.5 -337.5t-145 -248t-216.5 -149.5t-268 -52zM784 203q194 0 309 146t115 409q0 262 -115 406.5t-309 144.5
q-197 0 -312.5 -144t-115.5 -407t115.5 -409t312.5 -146zM936 1594q-46 0 -91.5 18t-75.5 39.5t-66 39.5t-64 18q-43 0 -63.5 -26t-20.5 -85h-143q0 285 215 285q45 0 91 -18t76.5 -39.5t66.5 -39.5t65 -18q42 0 63 26t21 85h141q0 -145 -56 -215t-159 -70z" />
    <glyph glyph-name="Odieresis" unicode="&#xd6;" horiz-adv-x="1564" 
d="M784 -29q-145 0 -269.5 52t-217.5 149.5t-146 248t-53 337.5t53 337.5t146 247.5t217.5 149t269.5 52t268.5 -52t216 -149t145 -247.5t52.5 -337.5t-52.5 -337.5t-145 -248t-216.5 -149.5t-268 -52zM784 203q194 0 309 146t115 409q0 262 -115 406.5t-309 144.5
q-197 0 -312.5 -144t-115.5 -407t115.5 -409t312.5 -146zM866 1602v248h232v-248h-232zM463 1602v248h229v-248h-229z" />
    <glyph glyph-name="multiply" unicode="&#xd7;" horiz-adv-x="1314" 
d="M322 172l-150 150l336 333l-336 334l150 148l333 -334l334 334l148 -148l-332 -332l336 -333l-150 -148l-334 334z" />
    <glyph glyph-name="Oslash" unicode="&#xd8;" horiz-adv-x="1564" 
d="M1317 1282q149 -204 149 -524q0 -187 -52.5 -337.5t-145 -248t-216.5 -149.5t-268 -52q-244 0 -422 142l-137 -164l-129 100l152 182q-150 209 -150 527q0 187 53 337.5t146 247.5t217.5 149t269.5 52q248 0 418 -141l137 164l129 -101zM416 426l639 788
q-109 103 -271 103q-198 0 -316 -147.5t-118 -411.5q0 -190 66 -332zM1149 1087l-641 -788q109 -106 276 -106q195 0 312.5 150t117.5 415q0 196 -65 329z" />
    <glyph glyph-name="Ugrave" unicode="&#xd9;" horiz-adv-x="1476" 
d="M739 -25q-153 0 -267.5 41.5t-183.5 119t-102.5 181.5t-33.5 236v963h256v-941q0 -368 333 -368q332 0 332 366v943h252v-961q0 -174 -64 -303t-197.5 -203t-324.5 -74zM703 1608l-297 340h272l193 -340h-168z" />
    <glyph glyph-name="Uacute" unicode="&#xda;" horiz-adv-x="1476" 
d="M739 -25q-153 0 -267.5 41.5t-183.5 119t-102.5 181.5t-33.5 236v963h256v-941q0 -368 333 -368q332 0 332 366v943h252v-961q0 -174 -64 -303t-197.5 -203t-324.5 -74zM587 1608l193 340h272l-297 -340h-168z" />
    <glyph glyph-name="Ucircumflex" unicode="&#xdb;" horiz-adv-x="1476" 
d="M739 -25q-153 0 -267.5 41.5t-183.5 119t-102.5 181.5t-33.5 236v963h256v-941q0 -368 333 -368q332 0 332 366v943h252v-961q0 -174 -64 -303t-197.5 -203t-324.5 -74zM387 1608l264 340h174l264 -340h-147l-205 172l-205 -172h-145z" />
    <glyph glyph-name="Udieresis" unicode="&#xdc;" horiz-adv-x="1476" 
d="M739 -25q-153 0 -267.5 41.5t-183.5 119t-102.5 181.5t-33.5 236v963h256v-941q0 -368 333 -368q332 0 332 366v943h252v-961q0 -174 -64 -303t-197.5 -203t-324.5 -74zM821 1602v248h232v-248h-232zM418 1602v248h229v-248h-229z" />
    <glyph glyph-name="Yacute" unicode="&#xdd;" horiz-adv-x="1353" 
d="M547 0v653l-516 863h270l379 -646l377 646h266l-518 -863v-653h-258zM493 1618l193 340h272l-297 -340h-168z" />
    <glyph glyph-name="Thorn" unicode="&#xde;" horiz-adv-x="1361" 
d="M172 0v1516h256v-252h270q101 -1 186.5 -16t161 -50t128 -88.5t82.5 -134t30 -182.5q0 -107 -32.5 -191t-87.5 -137.5t-133 -89t-162 -50t-181 -14.5h-262v-311h-256zM428 541h270q171 0 249.5 57t78.5 186q0 125 -79.5 182.5t-250.5 57.5h-268v-483z" />
    <glyph glyph-name="germandbls" unicode="&#xdf;" horiz-adv-x="1341" 
d="M838 -23q-123 0 -215 36.5t-148 95.5l131 151q93 -86 221 -86q96 0 152.5 65.5t56.5 172.5q0 67 -22 118t-61 84t-98 55t-125.5 32.5t-151.5 13.5v182q168 1 240.5 60.5t72.5 166.5q0 86 -62.5 133.5t-177.5 47.5q-130 0 -195 -64.5t-65 -210.5v-1030h-250v1022
q0 124 37 218.5t106 154.5t163 90.5t210 30.5q220 0 344.5 -98t124.5 -275q0 -119 -71.5 -200.5t-190.5 -117.5q81 -10 151.5 -37.5t129.5 -75t93 -122t34 -168.5q0 -210 -116.5 -327.5t-317.5 -117.5z" />
    <glyph glyph-name="agrave" unicode="&#xe0;" horiz-adv-x="1157" 
d="M379 -16q-136 0 -221.5 73.5t-85.5 204.5q0 183 169 296t539 155v32q0 81 -43.5 118.5t-134.5 37.5q-183 0 -366 -147l-123 157q96 87 231 142t293 55q211 0 301 -97.5t90 -295.5v-449q0 -192 31 -266h-254q-25 80 -25 139q-81 -83 -178.5 -119t-222.5 -36zM471 178
q177 0 309 125v240q-461 -63 -461 -234q0 -63 41 -97t111 -34zM557 1202l-297 340h272l193 -340h-168z" />
    <glyph glyph-name="aacute" unicode="&#xe1;" horiz-adv-x="1157" 
d="M379 -16q-136 0 -221.5 73.5t-85.5 204.5q0 183 169 296t539 155v32q0 81 -43.5 118.5t-134.5 37.5q-183 0 -366 -147l-123 157q96 87 231 142t293 55q211 0 301 -97.5t90 -295.5v-449q0 -192 31 -266h-254q-25 80 -25 139q-81 -83 -178.5 -119t-222.5 -36zM471 178
q177 0 309 125v240q-461 -63 -461 -234q0 -63 41 -97t111 -34zM454 1202l193 340h272l-297 -340h-168z" />
    <glyph glyph-name="acircumflex" unicode="&#xe2;" horiz-adv-x="1157" 
d="M379 -16q-136 0 -221.5 73.5t-85.5 204.5q0 183 169 296t539 155v32q0 81 -43.5 118.5t-134.5 37.5q-183 0 -366 -147l-123 157q96 87 231 142t293 55q211 0 301 -97.5t90 -295.5v-449q0 -192 31 -266h-254q-25 80 -25 139q-81 -83 -178.5 -119t-222.5 -36zM471 178
q177 0 309 125v240q-461 -63 -461 -234q0 -63 41 -97t111 -34zM236 1202l264 340h174l264 -340h-147l-205 172l-205 -172h-145z" />
    <glyph glyph-name="atilde" unicode="&#xe3;" horiz-adv-x="1157" 
d="M379 -16q-136 0 -221.5 73.5t-85.5 204.5q0 183 169 296t539 155v32q0 81 -43.5 118.5t-134.5 37.5q-183 0 -366 -147l-123 157q96 87 231 142t293 55q211 0 301 -97.5t90 -295.5v-449q0 -192 31 -266h-254q-25 80 -25 139q-81 -83 -178.5 -119t-222.5 -36zM471 178
q177 0 309 125v240q-461 -63 -461 -234q0 -63 41 -97t111 -34zM739 1188q-46 0 -91.5 18t-75.5 39.5t-66 39.5t-64 18q-43 0 -63.5 -26t-20.5 -85h-143q0 285 215 285q45 0 91 -18t76.5 -39.5t66.5 -39.5t65 -18q42 0 63 26t21 85h141q0 -145 -56 -215t-159 -70z" />
    <glyph glyph-name="adieresis" unicode="&#xe4;" horiz-adv-x="1157" 
d="M379 -16q-136 0 -221.5 73.5t-85.5 204.5q0 183 169 296t539 155v32q0 81 -43.5 118.5t-134.5 37.5q-183 0 -366 -147l-123 157q96 87 231 142t293 55q211 0 301 -97.5t90 -295.5v-449q0 -192 31 -266h-254q-25 80 -25 139q-81 -83 -178.5 -119t-222.5 -36zM471 178
q177 0 309 125v240q-461 -63 -461 -234q0 -63 41 -97t111 -34zM677 1196v248h232v-248h-232zM274 1196v248h229v-248h-229z" />
    <glyph glyph-name="aring" unicode="&#xe5;" horiz-adv-x="1157" 
d="M379 -16q-136 0 -221.5 73.5t-85.5 204.5q0 183 169 296t539 155v32q0 81 -43.5 118.5t-134.5 37.5q-183 0 -366 -147l-123 157q96 87 231 142t293 55q211 0 301 -97.5t90 -295.5v-449q0 -192 31 -266h-254q-25 80 -25 139q-81 -83 -178.5 -119t-222.5 -36zM471 178
q177 0 309 125v240q-461 -63 -461 -234q0 -63 41 -97t111 -34zM596 1186q-90 0 -149.5 59.5t-59.5 149.5q0 89 59 148t150 59t150 -59t59 -148q0 -90 -59.5 -149.5t-149.5 -59.5zM596 1290q43 0 71.5 29.5t28.5 75.5q0 44 -28.5 74t-71.5 30t-71.5 -30t-28.5 -74
q0 -46 28.5 -75.5t71.5 -29.5z" />
    <glyph glyph-name="ae" unicode="&#xe6;" horiz-adv-x="1832" 
d="M379 -23q-137 0 -222 73.5t-85 205.5q0 184 169.5 300t538.5 157v32q0 81 -43.5 118.5t-134.5 37.5q-183 0 -366 -147l-123 157q96 87 231 142t293 55q134 0 203.5 -43.5t103.5 -126.5q48 73 141 121.5t191 48.5q53 0 102.5 -9t98 -30t89 -53t75.5 -79.5t59.5 -106.5
t38.5 -138t14 -172v-49h-743q7 -149 85 -221t205 -72q100 0 170 31t136 96l133 -131q-181 -197 -459 -197q-296 0 -424 222q-109 -119 -216 -170.5t-261 -51.5zM1014 649h508q-21 254 -248 254q-100 0 -171 -62t-89 -192zM469 172q184 0 334 156q-20 64 -23 161v60
q-225 -31 -343 -94t-118 -152q0 -63 40 -97t110 -34z" />
    <glyph glyph-name="ccedilla" unicode="&#xe7;" horiz-adv-x="1116" 
d="M592 -408q-169 0 -285 76l51 82q91 -61 211 -61q121 0 121 80q0 63 -74 63q-47 0 -94 -37l-71 35l47 158q-68 10 -128.5 36.5t-114 72.5t-92 108.5t-61 149t-22.5 188.5q0 120 31.5 218t82.5 161t120 106t140.5 61.5t147.5 18.5q97 0 174 -25t129 -71.5t86.5 -99
t61.5 -121.5l-213 -76q-37 108 -94 156.5t-148 48.5q-115 0 -189.5 -96t-74.5 -281q0 -175 68.5 -278t191.5 -103q88 0 149.5 49t104.5 162l209 -76q-30 -68 -67.5 -120.5t-90 -96.5t-124.5 -69t-161 -29l-22 -82q48 30 123 30q62 0 104.5 -37.5t42.5 -103.5
q0 -93 -76.5 -145t-193.5 -52z" />
    <glyph glyph-name="egrave" unicode="&#xe8;" horiz-adv-x="1155" 
d="M604 -23q-105 0 -197 33t-166.5 99.5t-117.5 178t-43 255.5q0 119 32.5 217t85 161.5t121.5 106.5t138.5 61.5t140.5 18.5q76 0 143.5 -18.5t129.5 -62t106.5 -109.5t71 -167.5t26.5 -230.5v-59h-743q7 -142 86 -212.5t205 -70.5q100 0 169.5 31t135.5 96l133 -131
q-178 -197 -457 -197zM336 649h508q-21 254 -248 254q-100 0 -171 -62t-89 -192zM541 1202l-297 340h272l193 -340h-168z" />
    <glyph glyph-name="eacute" unicode="&#xe9;" horiz-adv-x="1155" 
d="M604 -23q-105 0 -197 33t-166.5 99.5t-117.5 178t-43 255.5q0 119 32.5 217t85 161.5t121.5 106.5t138.5 61.5t140.5 18.5q76 0 143.5 -18.5t129.5 -62t106.5 -109.5t71 -167.5t26.5 -230.5v-59h-743q7 -142 86 -212.5t205 -70.5q100 0 169.5 31t135.5 96l133 -131
q-178 -197 -457 -197zM336 649h508q-21 254 -248 254q-100 0 -171 -62t-89 -192zM456 1202l193 340h272l-297 -340h-168z" />
    <glyph glyph-name="ecircumflex" unicode="&#xea;" horiz-adv-x="1155" 
d="M604 -23q-105 0 -197 33t-166.5 99.5t-117.5 178t-43 255.5q0 119 32.5 217t85 161.5t121.5 106.5t138.5 61.5t140.5 18.5q76 0 143.5 -18.5t129.5 -62t106.5 -109.5t71 -167.5t26.5 -230.5v-59h-743q7 -142 86 -212.5t205 -70.5q100 0 169.5 31t135.5 96l133 -131
q-178 -197 -457 -197zM336 649h508q-21 254 -248 254q-100 0 -171 -62t-89 -192zM236 1202l264 340h174l264 -340h-147l-205 172l-205 -172h-145z" />
    <glyph glyph-name="edieresis" unicode="&#xeb;" horiz-adv-x="1155" 
d="M604 -23q-105 0 -197 33t-166.5 99.5t-117.5 178t-43 255.5q0 119 32.5 217t85 161.5t121.5 106.5t138.5 61.5t140.5 18.5q76 0 143.5 -18.5t129.5 -62t106.5 -109.5t71 -167.5t26.5 -230.5v-59h-743q7 -142 86 -212.5t205 -70.5q100 0 169.5 31t135.5 96l133 -131
q-178 -197 -457 -197zM336 649h508q-21 254 -248 254q-100 0 -171 -62t-89 -192zM665 1196v248h232v-248h-232zM262 1196v248h229v-248h-229z" />
    <glyph glyph-name="igrave" unicode="&#xec;" horiz-adv-x="557" 
d="M152 0v1087h254v-1087h-254zM211 1202l-297 340h272l193 -340h-168z" />
    <glyph glyph-name="iacute" unicode="&#xed;" horiz-adv-x="557" 
d="M152 0v1087h254v-1087h-254zM192 1202l193 340h272l-297 -340h-168z" />
    <glyph glyph-name="icircumflex" unicode="&#xee;" horiz-adv-x="557" 
d="M152 0v1087h254v-1087h-254zM-73 1202l264 340h174l264 -340h-147l-205 172l-205 -172h-145z" />
    <glyph glyph-name="idieresis" unicode="&#xef;" horiz-adv-x="557" 
d="M152 0v1087h254v-1087h-254zM362 1196v248h232v-248h-232zM-41 1196v248h229v-248h-229z" />
    <glyph glyph-name="eth" unicode="&#xf0;" horiz-adv-x="1218" 
d="M610 -23q-232 0 -380 143t-148 386q0 245 135.5 382.5t339.5 137.5q84 0 173 -41t144 -113q-43 183 -143 304l-182 -78l-74 139l152 66q-47 47 -135 110l120 143q117 -71 201 -155l182 82l74 -142l-149 -67q217 -293 217 -735q0 -129 -40 -235.5t-110.5 -178t-167 -110
t-209.5 -38.5zM610 182q128 0 201.5 84.5t73.5 243.5q0 151 -73.5 236t-201.5 85q-130 0 -203 -83t-73 -240q0 -153 72.5 -239.5t203.5 -86.5z" />
    <glyph glyph-name="ntilde" unicode="&#xf1;" 
d="M141 0v1087h254v-147q65 69 165 118.5t233 49.5q145 0 229 -85t84 -243v-780h-254v717q0 91 -39.5 133.5t-122.5 42.5q-141 0 -295 -141v-752h-254zM780 1188q-46 0 -91.5 18t-75.5 39.5t-66 39.5t-64 18q-43 0 -63.5 -26t-20.5 -85h-143q0 285 215 285q45 0 91 -18
t76.5 -39.5t66.5 -39.5t65 -18q42 0 63 26t21 85h141q0 -145 -56 -215t-159 -70z" />
    <glyph glyph-name="ograve" unicode="&#xf2;" horiz-adv-x="1220" 
d="M610 -23q-81 0 -156.5 20.5t-144 65t-119 109.5t-80.5 160.5t-30 210.5q0 117 29.5 212.5t80 160t119 108.5t144 64t157.5 20q81 0 156.5 -20t144.5 -64t119.5 -108.5t80.5 -160t30 -212.5q0 -143 -45.5 -255t-122 -178t-169 -99.5t-194.5 -33.5zM610 188q135 0 206 93
t71 262q0 159 -70 254.5t-207 95.5q-135 0 -205.5 -92t-70.5 -258q0 -163 68.5 -259t207.5 -96zM568 1202l-297 340h272l193 -340h-168z" />
    <glyph glyph-name="oacute" unicode="&#xf3;" horiz-adv-x="1220" 
d="M610 -23q-81 0 -156.5 20.5t-144 65t-119 109.5t-80.5 160.5t-30 210.5q0 117 29.5 212.5t80 160t119 108.5t144 64t157.5 20q81 0 156.5 -20t144.5 -64t119.5 -108.5t80.5 -160t30 -212.5q0 -143 -45.5 -255t-122 -178t-169 -99.5t-194.5 -33.5zM610 188q135 0 206 93
t71 262q0 159 -70 254.5t-207 95.5q-135 0 -205.5 -92t-70.5 -258q0 -163 68.5 -259t207.5 -96zM481 1202l193 340h272l-297 -340h-168z" />
    <glyph glyph-name="ocircumflex" unicode="&#xf4;" horiz-adv-x="1220" 
d="M610 -23q-81 0 -156.5 20.5t-144 65t-119 109.5t-80.5 160.5t-30 210.5q0 117 29.5 212.5t80 160t119 108.5t144 64t157.5 20q81 0 156.5 -20t144.5 -64t119.5 -108.5t80.5 -160t30 -212.5q0 -143 -45.5 -255t-122 -178t-169 -99.5t-194.5 -33.5zM610 188q135 0 206 93
t71 262q0 159 -70 254.5t-207 95.5q-135 0 -205.5 -92t-70.5 -258q0 -163 68.5 -259t207.5 -96zM260 1202l264 340h174l264 -340h-147l-205 172l-205 -172h-145z" />
    <glyph glyph-name="otilde" unicode="&#xf5;" horiz-adv-x="1220" 
d="M610 -23q-81 0 -156.5 20.5t-144 65t-119 109.5t-80.5 160.5t-30 210.5q0 117 29.5 212.5t80 160t119 108.5t144 64t157.5 20q81 0 156.5 -20t144.5 -64t119.5 -108.5t80.5 -160t30 -212.5q0 -143 -45.5 -255t-122 -178t-169 -99.5t-194.5 -33.5zM610 188q135 0 206 93
t71 262q0 159 -70 254.5t-207 95.5q-135 0 -205.5 -92t-70.5 -258q0 -163 68.5 -259t207.5 -96zM768 1188q-46 0 -91.5 18t-75.5 39.5t-66 39.5t-64 18q-43 0 -63.5 -26t-20.5 -85h-143q0 285 215 285q45 0 91 -18t76.5 -39.5t66.5 -39.5t65 -18q42 0 63 26t21 85h141
q0 -145 -56 -215t-159 -70z" />
    <glyph glyph-name="odieresis" unicode="&#xf6;" horiz-adv-x="1220" 
d="M610 -23q-81 0 -156.5 20.5t-144 65t-119 109.5t-80.5 160.5t-30 210.5q0 117 29.5 212.5t80 160t119 108.5t144 64t157.5 20q81 0 156.5 -20t144.5 -64t119.5 -108.5t80.5 -160t30 -212.5q0 -143 -45.5 -255t-122 -178t-169 -99.5t-194.5 -33.5zM610 188q135 0 206 93
t71 262q0 159 -70 254.5t-207 95.5q-135 0 -205.5 -92t-70.5 -258q0 -163 68.5 -259t207.5 -96zM694 1196v248h232v-248h-232zM291 1196v248h229v-248h-229z" />
    <glyph glyph-name="divide" unicode="&#xf7;" horiz-adv-x="1314" 
d="M537 975v215h235v-215h-235zM137 598v203h1043v-203h-1043zM537 207v215h235v-215h-235z" />
    <glyph glyph-name="oslash" unicode="&#xf8;" horiz-adv-x="1220" 
d="M1026 922q115 -148 115 -379q0 -143 -45.5 -255t-122 -178t-169 -99.5t-194.5 -33.5q-168 0 -301 84l-121 -139l-106 98l119 138q-121 150 -121 385q0 117 29.5 212.5t80 160t119 108.5t144 64t157.5 20q178 0 308 -88l114 135l109 -100zM365 340l413 510q-68 55 -168 55
q-136 0 -209 -96.5t-73 -265.5q0 -119 37 -203zM860 735l-414 -508q66 -53 164 -53q136 0 209.5 98.5t73.5 270.5q0 113 -33 192z" />
    <glyph glyph-name="ugrave" unicode="&#xf9;" 
d="M442 -20q-145 0 -229 84.5t-84 242.5v780h254v-720q0 -91 39.5 -134t122.5 -43q78 0 148.5 36.5t146.5 105.5v755h254v-1087h-254v147q-65 -69 -165 -118t-233 -49zM578 1202l-297 340h272l193 -340h-168z" />
    <glyph glyph-name="uacute" unicode="&#xfa;" 
d="M442 -20q-145 0 -229 84.5t-84 242.5v780h254v-720q0 -91 39.5 -134t122.5 -43q78 0 148.5 36.5t146.5 105.5v755h254v-1087h-254v147q-65 -69 -165 -118t-233 -49zM477 1202l193 340h272l-297 -340h-168z" />
    <glyph glyph-name="ucircumflex" unicode="&#xfb;" 
d="M442 -20q-145 0 -229 84.5t-84 242.5v780h254v-720q0 -91 39.5 -134t122.5 -43q78 0 148.5 36.5t146.5 105.5v755h254v-1087h-254v147q-65 -69 -165 -118t-233 -49zM260 1202l264 340h174l264 -340h-147l-205 172l-205 -172h-145z" />
    <glyph glyph-name="udieresis" unicode="&#xfc;" 
d="M442 -20q-145 0 -229 84.5t-84 242.5v780h254v-720q0 -91 39.5 -134t122.5 -43q78 0 148.5 36.5t146.5 105.5v755h254v-1087h-254v147q-65 -69 -165 -118t-233 -49zM698 1196v248h232v-248h-232zM295 1196v248h229v-248h-229z" />
    <glyph glyph-name="yacute" unicode="&#xfd;" horiz-adv-x="1120" 
d="M256 -422q-133 0 -258 33l57 203q89 -23 185 -23q67 0 106.5 28.5t65.5 94.5l30 80l-417 1093h262l280 -792h4l279 792h250l-463 -1206q-58 -154 -143.5 -228.5t-237.5 -74.5zM376 1202l193 340h272l-297 -340h-168z" />
    <glyph glyph-name="thorn" unicode="&#xfe;" horiz-adv-x="1251" 
d="M141 -410v1926h252v-572q137 164 346 164q194 0 312 -144.5t118 -418.5q0 -276 -124.5 -418.5t-339.5 -142.5q-89 0 -171 35.5t-141 101.5v-531h-252zM649 184q141 0 205 87.5t64 271.5q0 170 -69 260t-192 90q-74 0 -145 -39.5t-119 -97.5v-437q50 -65 118.5 -100
t137.5 -35z" />
    <glyph glyph-name="ydieresis" unicode="&#xff;" horiz-adv-x="1120" 
d="M256 -422q-133 0 -258 33l57 203q89 -23 185 -23q67 0 106.5 28.5t65.5 94.5l30 80l-417 1093h262l280 -792h4l279 792h250l-463 -1206q-58 -154 -143.5 -228.5t-237.5 -74.5zM653 1196v248h232v-248h-232zM250 1196v248h229v-248h-229z" />
    <glyph glyph-name="dotlessi" unicode="&#x131;" horiz-adv-x="557" 
d="M152 0v1087h254v-1087h-254z" />
    <glyph glyph-name="Lslash" unicode="&#x141;" horiz-adv-x="1183" 
d="M172 0v680l-170 -45v196l170 46v639h258v-572l303 82v-197l-303 -81v-515h696v-233h-954z" />
    <glyph glyph-name="lslash" unicode="&#x142;" horiz-adv-x="657" 
d="M203 0v645l-158 -43v189l158 43v682h254v-615l159 43v-188l-159 -43v-713h-254z" />
    <glyph glyph-name="OE" unicode="&#x152;" horiz-adv-x="2306" 
d="M782 -29q-139 0 -262.5 52t-218 149t-150 248.5t-55.5 337.5t55.5 337t150 248t218 149t262.5 52t255 -59t192 -164v195h956v-238h-723v-377h531v-227h-531v-441h762v-233h-995v197q-77 -105 -193 -165.5t-254 -60.5zM782 203q194 0 309 146t115 409q0 262 -115 406.5
t-309 144.5q-197 0 -312.5 -144t-115.5 -407t115.5 -409t312.5 -146z" />
    <glyph glyph-name="oe" unicode="&#x153;" horiz-adv-x="1945" 
d="M608 -23q-81 0 -156.5 20.5t-143.5 65t-118.5 109.5t-80 160.5t-29.5 210.5q0 117 29.5 212.5t79.5 160t118.5 108.5t143.5 64t157 20q127 0 233.5 -58t162.5 -161q52 97 161 158t226 61q76 0 143 -18.5t128.5 -62t106 -109.5t71 -168t26.5 -230v-49h-744
q7 -149 85.5 -221t205.5 -72q100 0 169.5 31t135.5 96l133 -131q-178 -197 -456 -197q-126 0 -238 57.5t-158 153.5q-63 -98 -165 -154.5t-226 -56.5zM1126 649h508q-21 254 -248 254q-100 0 -171 -62t-89 -192zM608 186q135 0 205 93.5t70 263.5q0 160 -69 255t-206 95
q-135 0 -204.5 -91.5t-69.5 -258.5q0 -164 67.5 -260.5t206.5 -96.5z" />
    <glyph glyph-name="Scaron" unicode="&#x160;" horiz-adv-x="1380" 
d="M702 -29q-220 0 -378 104t-232 281l203 107q133 -264 418 -264q144 0 226.5 48.5t82.5 147.5q0 96 -76 153t-268 114q-76 22 -122.5 37t-109 39.5t-100.5 47.5t-79.5 57t-64 72t-37.5 89t-15 112q0 193 143.5 310.5t374.5 117.5q210 0 350.5 -89t216.5 -236l-186 -129
q-131 221 -383 221q-127 0 -196 -44.5t-69 -127.5q0 -42 14.5 -74.5t39 -57t72 -47.5t98 -40.5t133.5 -42.5q69 -20 119.5 -37t107.5 -41.5t97 -49.5t78.5 -59.5t62 -74t37.5 -90.5t14 -111q0 -192 -154.5 -317.5t-417.5 -125.5zM600 1624l-264 340h147l205 -172l205 172
h145l-264 -340h-174z" />
    <glyph glyph-name="scaron" unicode="&#x161;" horiz-adv-x="1071" 
d="M539 -23q-147 0 -275.5 48t-204.5 125l138 153q67 -57 155.5 -93t186.5 -36q217 0 217 125q0 21 -8 38.5t-27 31.5t-36 23.5t-51.5 20t-55.5 16t-64 15.5q-164 38 -234 71q-169 81 -176 257v16q0 143 112 231.5t292 88.5q147 0 250.5 -39t195.5 -115l-120 -163
q-61 50 -148 84t-160 34q-184 0 -184 -110q0 -26 13.5 -46.5t32 -34t54 -26t63 -19.5t75.5 -18q164 -36 234 -69q172 -80 179 -257v-16q0 -83 -36 -148.5t-98.5 -106t-143.5 -61t-176 -20.5zM445 1208l-264 340h147l205 -172l205 172h145l-264 -340h-174z" />
    <glyph glyph-name="Ydieresis" unicode="&#x178;" horiz-adv-x="1353" 
d="M547 0v653l-516 863h270l379 -646l377 646h266l-518 -863v-653h-258zM763 1602v248h232v-248h-232zM360 1602v248h229v-248h-229z" />
    <glyph glyph-name="Zcaron" unicode="&#x17d;" horiz-adv-x="1320" 
d="M72 0v178l837 1122h-782v216h1104v-185l-828 -1122h828v-209h-1159zM582 1624l-264 340h147l205 -172l205 172h145l-264 -340h-174z" />
    <glyph glyph-name="zcaron" unicode="&#x17e;" horiz-adv-x="1064" 
d="M70 0v145l579 742h-536v200h852v-151l-582 -741h616v-195h-929zM449 1208l-264 340h147l205 -172l205 172h145l-264 -340h-174z" />
    <glyph glyph-name="florin" unicode="&#x192;" horiz-adv-x="788" 
d="M-188 -403l22 178q32 -8 84 -8q167 0 186 161l119 885h-188l22 182h189l26 203q9 73 32.5 129t68 101.5t119 69.5t176.5 24q50 0 149 -11l-24 -184q-32 8 -84 8q-37 0 -66 -6t-55.5 -20.5t-43 -43.5t-20.5 -71l-26 -199h237l-22 -182h-238l-123 -926q-9 -68 -32 -119.5
t-67 -94t-117.5 -65t-174.5 -22.5q-99 0 -149 11z" />
    <glyph glyph-name="circumflex" unicode="&#x2c6;" horiz-adv-x="1095" 
d="M197 1202l264 340h174l264 -340h-147l-205 172l-205 -172h-145z" />
    <glyph glyph-name="caron" unicode="&#x2c7;" horiz-adv-x="1095" 
d="M459 1208l-264 340h147l205 -172l205 172h145l-264 -340h-174z" />
    <glyph glyph-name="breve" unicode="&#x2d8;" horiz-adv-x="1024" 
d="M512 1186q-154 0 -243 99.5t-97 262.5h141q23 -194 199 -194t199 194h141q-8 -163 -97 -262.5t-243 -99.5z" />
    <glyph glyph-name="dotaccent" unicode="&#x2d9;" horiz-adv-x="1024" 
d="M377 1219v227h270v-227h-270z" />
    <glyph glyph-name="ring" unicode="&#x2da;" horiz-adv-x="1105" 
d="M553 1186q-90 0 -149.5 59.5t-59.5 149.5q0 89 59 148t150 59t150 -59t59 -148q0 -90 -59.5 -149.5t-149.5 -59.5zM553 1290q43 0 71.5 29.5t28.5 75.5q0 44 -28.5 74t-71.5 30t-71.5 -30t-28.5 -74q0 -46 28.5 -75.5t71.5 -29.5z" />
    <glyph glyph-name="ogonek" unicode="&#x2db;" horiz-adv-x="1024" 
d="M532 -383q-102 0 -157.5 42t-55.5 116q0 118 168 225h142q-131 -91 -131 -184q0 -88 98 -88q84 0 180 51l51 -82q-143 -80 -295 -80z" />
    <glyph glyph-name="tilde" unicode="&#x2dc;" horiz-adv-x="1054" 
d="M682 1188q-46 0 -91.5 18t-75.5 39.5t-66 39.5t-64 18q-43 0 -63.5 -26t-20.5 -85h-143q0 285 215 285q45 0 91 -18t76.5 -39.5t66.5 -39.5t65 -18q42 0 63 26t21 85h141q0 -145 -56 -215t-159 -70z" />
    <glyph glyph-name="hungarumlaut" unicode="&#x2dd;" horiz-adv-x="1060" 
d="M494 1202l217 340h274l-321 -340h-170zM127 1202l207 340h274l-311 -340h-170z" />
    <glyph glyph-name="pi" unicode="&#x3c0;" horiz-adv-x="1771" 
d="M885 -29q-217 0 -397 104t-283 284t-103 397t104 398t285 285.5t398 104.5q162 0 307 -61t248.5 -165.5t164 -250t60.5 -307.5q0 -217 -103.5 -398t-284 -286t-396.5 -105zM889 90q183 0 332.5 88t234 240.5t84.5 337.5q0 138 -50.5 262t-137.5 213.5t-208.5 141.5
t-258.5 52q-138 0 -259.5 -51.5t-208 -140t-136.5 -211.5t-50 -262q0 -185 86 -338.5t237.5 -242.5t334.5 -89zM610 334v858h318q153 0 236 -64t83 -194q0 -135 -88 -201.5t-244 -66.5h-143v-332h-162zM772 799h150q165 0 165 127q0 66 -41.5 96.5t-125.5 30.5h-148v-254z
" />
    <glyph glyph-name="endash" unicode="&#x2013;" horiz-adv-x="1331" 
d="M123 530v218h1085v-218h-1085z" />
    <glyph glyph-name="emdash" unicode="&#x2014;" horiz-adv-x="1914" 
d="M123 530v218h1669v-218h-1669z" />
    <glyph glyph-name="quoteleft" unicode="&#x2018;" horiz-adv-x="565" 
d="M147 1020v244l132 252h116l-71 -230h94v-266h-271z" />
    <glyph glyph-name="quoteright" unicode="&#x2019;" horiz-adv-x="565" 
d="M170 1020l72 229h-95v267h271v-244l-131 -252h-117z" />
    <glyph glyph-name="quotesinglbase" unicode="&#x201a;" horiz-adv-x="565" 
d="M170 -229l72 229h-95v266h271v-243l-131 -252h-117z" />
    <glyph glyph-name="quotedblleft" unicode="&#x201c;" horiz-adv-x="1009" 
d="M592 1020v244l131 252h117l-72 -230h94v-266h-270zM147 1020v244l132 252h116l-71 -230h94v-266h-271z" />
    <glyph glyph-name="quotedblright" unicode="&#x201d;" horiz-adv-x="1009" 
d="M614 1020l72 229h-94v267h270v-244l-131 -252h-117zM170 1020l72 229h-95v267h271v-244l-131 -252h-117z" />
    <glyph glyph-name="quotedblbase" unicode="&#x201e;" horiz-adv-x="1009" 
d="M614 -229l72 229h-94v266h270v-243l-131 -252h-117zM170 -229l72 229h-95v266h271v-243l-131 -252h-117z" />
    <glyph glyph-name="dagger" unicode="&#x2020;" horiz-adv-x="1204" 
d="M469 -410l41 1211l-432 -29v234l432 -31l-41 541h266l-41 -541l432 31v-234l-432 29l41 -1211h-266z" />
    <glyph glyph-name="daggerdbl" unicode="&#x2021;" horiz-adv-x="1204" 
d="M469 -410l41 449l-401 -31v223l401 -28l-33 352l33 348l-401 -29v224l401 -31l-41 449h266l-41 -449l402 31v-224l-402 29l33 -348l-33 -352l402 28v-223l-402 31l41 -449h-266z" />
    <glyph glyph-name="bullet" unicode="&#x2022;" horiz-adv-x="948" 
d="M473 455q-114 0 -188 74t-74 188q0 115 74 189.5t188 74.5q115 0 189.5 -74.5t74.5 -189.5q0 -114 -74.5 -188t-189.5 -74z" />
    <glyph glyph-name="ellipsis" unicode="&#x2026;" horiz-adv-x="1695" 
d="M1272 0v266h282v-266h-282zM707 0v266h282v-266h-282zM141 0v266h283v-266h-283z" />
    <glyph glyph-name="perthousand" unicode="&#x2030;" horiz-adv-x="3037" 
d="M485 580q-179 0 -280 130t-101 347q0 221 103.5 352t279.5 131t277.5 -129.5t101.5 -349.5q0 -217 -102 -349t-279 -132zM514 0l905 1516h221l-905 -1516h-221zM2552 -20q-179 0 -280 130t-101 347q0 220 103 350.5t280 130.5q174 0 276.5 -129t102.5 -348
q0 -217 -102.5 -349t-278.5 -132zM1669 -20q-179 0 -280 130t-101 347q0 220 103 350.5t280 130.5q174 0 276.5 -129t102.5 -348q0 -217 -102.5 -349t-278.5 -132zM487 760q83 0 124.5 79t41.5 220q0 145 -42 222t-126 77t-126 -78t-42 -219q0 -145 42.5 -223t127.5 -78z
M2552 158q84 0 126 80t42 221q0 145 -42 222t-126 77q-85 0 -127.5 -78t-42.5 -219q0 -145 42.5 -224t127.5 -79zM1669 158q84 0 126 80t42 221q0 145 -42 222t-126 77q-85 0 -127.5 -78t-42.5 -219q0 -145 42.5 -224t127.5 -79z" />
    <glyph glyph-name="guilsinglleft" unicode="&#x2039;" horiz-adv-x="722" 
d="M391 0l-325 545l325 542h246l-313 -542l313 -545h-246z" />
    <glyph glyph-name="guilsinglright" unicode="&#x203a;" horiz-adv-x="722" 
d="M84 0l315 545l-315 542h246l327 -542l-327 -545h-246z" />
    <glyph glyph-name="fraction" unicode="&#x2044;" horiz-adv-x="1048" 
d="M-33 0l893 1516h221l-893 -1516h-221z" />
    <glyph glyph-name="Euro" unicode="&#x20ac;" horiz-adv-x="1492" 
d="M268 819h-225v170h244q33 185 119.5 312t202.5 185t257 58q111 0 198 -29.5t148.5 -86.5t103 -131t70.5 -173l-221 -75q-44 147 -106.5 210.5t-190.5 63.5t-214 -84t-119 -250h380v-170h-399v-53q0 -59 2 -88h397v-172h-376q33 -159 114 -238.5t219 -79.5q121 0 193 70
t115 227l225 -67q-62 -213 -195.5 -330t-339.5 -117q-222 0 -375 134t-204 401h-248v172h227q-2 27 -2 84v57z" />
    <glyph glyph-name="trademark" unicode="&#x2122;" horiz-adv-x="1853" 
d="M870 649v867h238l201 -635l202 635h236v-867h-172v613l-199 -613h-147l-199 608v-608h-160zM309 649v719h-250v148h678v-148h-250v-719h-178z" />
    <glyph glyph-name="Omega" unicode="&#x2126;" horiz-adv-x="1556" 
d="M330 309l-45 -4v193l59 -4l12 170l-336 -41v266l336 -41l-14 174l-57 -4v192l43 -4l-2 43h192l-4 -57l172 -12l-41 336h266l-41 -336l172 12l-4 57h193l-4 -43l45 4v-192l-60 4l-12 -174l336 41v-266l-336 41l12 -170l60 4v-193l-45 4l4 -47h-193l4 62l-172 12l41 -336
h-266l41 336l-172 -12l4 -62h-192zM870 1047v-199h197l-14 186zM686 848v199l-184 -13l-13 -186h197zM870 664v-195l185 12l12 183h-197zM502 481l184 -12v195h-197z" />
    <glyph glyph-name="partialdiff" unicode="&#x2202;" horiz-adv-x="1556" 
d="M330 309l-45 -4v193l59 -4l12 170l-336 -41v266l336 -41l-14 174l-57 -4v192l43 -4l-2 43h192l-4 -57l172 -12l-41 336h266l-41 -336l172 12l-4 57h193l-4 -43l45 4v-192l-60 4l-12 -174l336 41v-266l-336 41l12 -170l60 4v-193l-45 4l4 -47h-193l4 62l-172 12l41 -336
h-266l41 336l-172 -12l4 -62h-192zM870 1047v-199h197l-14 186zM686 848v199l-184 -13l-13 -186h197zM870 664v-195l185 12l12 183h-197zM502 481l184 -12v195h-197z" />
    <glyph glyph-name="Delta" unicode="&#x2206;" horiz-adv-x="1277" 
d="M868 1266v229h256v-229h-256zM236 0v887h-189v200h189v111q0 148 77 236t248 88q42 0 141 -11v-194q-27 6 -75 6q-140 0 -140 -141v-95h213v-200h-213v-887h-251zM819 -414q-32 0 -86 5t-67 8v176q36 -8 84 -8q60 0 90 32.5t30 104.5v1183h252v-1222q0 -62 -12.5 -108
t-44 -87t-93.5 -62.5t-153 -21.5z" />
    <glyph glyph-name="product" unicode="&#x220f;" horiz-adv-x="1097" 
d="M547 598q-199 0 -335 136.5t-136 336.5q0 132 63 241t172 171.5t240 62.5q198 0 334.5 -136t136.5 -335q0 -132 -63 -241.5t-172 -172.5t-240 -63zM551 676q164 0 275.5 114t111.5 281q0 168 -113 283.5t-278 115.5q-164 0 -275.5 -114.5t-111.5 -280.5q0 -169 112 -284
t279 -115zM367 823v520h192q93 0 144 -41t51 -120q0 -110 -101 -148l113 -211h-111l-104 199h-80v-199h-104zM471 1102h82q100 0 100 76q0 71 -100 71h-82v-147z" />
    <glyph glyph-name="summation" unicode="&#x2211;" horiz-adv-x="1556" 
d="M330 309l-45 -4v193l59 -4l12 170l-336 -41v266l336 -41l-14 174l-57 -4v192l43 -4l-2 43h192l-4 -57l172 -12l-41 336h266l-41 -336l172 12l-4 57h193l-4 -43l45 4v-192l-60 4l-12 -174l336 41v-266l-336 41l12 -170l60 4v-193l-45 4l4 -47h-193l4 62l-172 12l41 -336
h-266l41 336l-172 -12l4 -62h-192zM870 1047v-199h197l-14 186zM686 848v199l-184 -13l-13 -186h197zM870 664v-195l185 12l12 183h-197zM502 481l184 -12v195h-197z" />
    <glyph glyph-name="minus" unicode="&#x2212;" horiz-adv-x="1314" 
d="M137 598v203h1043v-203h-1043z" />
    <glyph glyph-name="radical" unicode="&#x221a;" horiz-adv-x="1161" 
d="M412 -2l-394 1089h265l266 -802h4l410 1231h243l-538 -1518h-256z" />
    <glyph glyph-name="infinity" unicode="&#x221e;" horiz-adv-x="1902" 
d="M1501 1266v229h256v-229h-256zM236 0v887h-189v200h189v111q0 148 77 236t248 88q42 0 141 -11v-194q-27 6 -75 6q-140 0 -140 -141v-95h383v99q0 71 17.5 129.5t54.5 106t101.5 74t152.5 26.5q40 0 139 -11v-194q-24 6 -75 6q-138 0 -138 -141v-95h211v-200h-211v-887
h-252v887h-383v-887h-251zM1503 0v1087h252v-1087h-252z" />
    <glyph glyph-name="integral" unicode="&#x222b;" horiz-adv-x="1556" 
d="M330 309l-45 -4v193l59 -4l12 170l-336 -41v266l336 -41l-14 174l-57 -4v192l43 -4l-2 43h192l-4 -57l172 -12l-41 336h266l-41 -336l172 12l-4 57h193l-4 -43l45 4v-192l-60 4l-12 -174l336 41v-266l-336 41l12 -170l60 4v-193l-45 4l4 -47h-193l4 62l-172 12l41 -336
h-266l41 336l-172 -12l4 -62h-192zM870 1047v-199h197l-14 186zM686 848v199l-184 -13l-13 -186h197zM870 664v-195l185 12l12 183h-197zM502 481l184 -12v195h-197z" />
    <glyph glyph-name="approxequal" unicode="&#x2248;" horiz-adv-x="1556" 
d="M330 309l-45 -4v193l59 -4l12 170l-336 -41v266l336 -41l-14 174l-57 -4v192l43 -4l-2 43h192l-4 -57l172 -12l-41 336h266l-41 -336l172 12l-4 57h193l-4 -43l45 4v-192l-60 4l-12 -174l336 41v-266l-336 41l12 -170l60 4v-193l-45 4l4 -47h-193l4 62l-172 12l41 -336
h-266l41 336l-172 -12l4 -62h-192zM870 1047v-199h197l-14 186zM686 848v199l-184 -13l-13 -186h197zM870 664v-195l185 12l12 183h-197zM502 481l184 -12v195h-197z" />
    <glyph glyph-name="notequal" unicode="&#x2260;" horiz-adv-x="1411" 
d="M236 0v887h-189v200h189v111q0 148 77 236t248 88q42 0 141 -11v-192q-27 6 -75 6q-140 0 -140 -141v-97h383v101q0 73 16.5 130t55 104.5t109 73.5t170.5 26q52 0 151 -11v-194q-36 8 -86 8q-77 0 -120.5 -30t-43.5 -111v-97h238v-200h-238v-887h-252v887h-383v-887
h-251z" />
    <glyph glyph-name="lessequal" unicode="&#x2264;" horiz-adv-x="1556" 
d="M330 309l-45 -4v193l59 -4l12 170l-336 -41v266l336 -41l-14 174l-57 -4v192l43 -4l-2 43h192l-4 -57l172 -12l-41 336h266l-41 -336l172 12l-4 57h193l-4 -43l45 4v-192l-60 4l-12 -174l336 41v-266l-336 41l12 -170l60 4v-193l-45 4l4 -47h-193l4 62l-172 12l41 -336
h-266l41 336l-172 -12l4 -62h-192zM870 1047v-199h197l-14 186zM686 848v199l-184 -13l-13 -186h197zM870 664v-195l185 12l12 183h-197zM502 481l184 -12v195h-197z" />
    <glyph glyph-name="greaterequal" unicode="&#x2265;" horiz-adv-x="1556" 
d="M330 309l-45 -4v193l59 -4l12 170l-336 -41v266l336 -41l-14 174l-57 -4v192l43 -4l-2 43h192l-4 -57l172 -12l-41 336h266l-41 -336l172 12l-4 57h193l-4 -43l45 4v-192l-60 4l-12 -174l336 41v-266l-336 41l12 -170l60 4v-193l-45 4l4 -47h-193l4 62l-172 12l41 -336
h-266l41 336l-172 -12l4 -62h-192zM870 1047v-199h197l-14 186zM686 848v199l-184 -13l-13 -186h197zM870 664v-195l185 12l12 183h-197zM502 481l184 -12v195h-197z" />
    <glyph glyph-name="lozenge" unicode="&#x25ca;" horiz-adv-x="1556" 
d="M330 309l-45 -4v193l59 -4l12 170l-336 -41v266l336 -41l-14 174l-57 -4v192l43 -4l-2 43h192l-4 -57l172 -12l-41 336h266l-41 -336l172 12l-4 57h193l-4 -43l45 4v-192l-60 4l-12 -174l336 41v-266l-336 41l12 -170l60 4v-193l-45 4l4 -47h-193l4 62l-172 12l41 -336
h-266l41 336l-172 -12l4 -62h-192zM870 1047v-199h197l-14 186zM686 848v199l-184 -13l-13 -186h197zM870 664v-195l185 12l12 183h-197zM502 481l184 -12v195h-197z" />
    <glyph glyph-name="apple" unicode="&#xf8ff;" horiz-adv-x="1556" 
d="M330 309l-45 -4v193l59 -4l12 170l-336 -41v266l336 -41l-14 174l-57 -4v192l43 -4l-2 43h192l-4 -57l172 -12l-41 336h266l-41 -336l172 12l-4 57h193l-4 -43l45 4v-192l-60 4l-12 -174l336 41v-266l-336 41l12 -170l60 4v-193l-45 4l4 -47h-193l4 62l-172 12l41 -336
h-266l41 336l-172 -12l4 -62h-192zM870 1047v-199h197l-14 186zM686 848v199l-184 -13l-13 -186h197zM870 664v-195l185 12l12 183h-197zM502 481l184 -12v195h-197z" />
    <glyph glyph-name="fi" unicode="&#xfb01;" horiz-adv-x="1284" 
d="M868 1266v229h256v-229h-256zM236 0v887h-189v200h189v111q0 148 77 236t248 88q42 0 141 -11v-194q-27 6 -75 6q-140 0 -140 -141v-95h213v-200h-213v-887h-251zM870 0v1087h252v-1087h-252z" />
    <glyph glyph-name="fl" unicode="&#xfb02;" horiz-adv-x="1277" 
d="M236 0v887h-189v200h189v111q0 148 77 236t248 88q42 0 141 -11v-194q-27 6 -75 6q-140 0 -140 -141v-95h213v-200h-213v-887h-251zM870 0v1516h252v-1516h-252z" />
    <glyph glyph-name="NUL" horiz-adv-x="0" 
 />
  </font>
</defs>
</svg>
