<?xml version="1.0" encoding="UTF-8"?>
<svg width="100pt" height="100pt" version="1.1" viewBox="0 0 100 100" xmlns="http://www.w3.org/2000/svg">
 <path d="m88.102 48.699h-58.301v-25.199c0.019531-1.5586 0.69141-3.0391 1.8477-4.082 1.1602-1.043 2.6992-1.5586 4.25-1.418 2.9102 0.35938 5.0742 2.8672 5 5.8008v4.1992h6v-4.5c-0.015626-3.2422-1.3867-6.3281-3.7773-8.5117-2.3945-2.1836-5.5938-3.2695-8.8203-2.9883-6.0039 0.66406-10.539 5.7578-10.5 11.801v24.898h-11.902c-1.6562 0-3 1.3438-3 3v10.602c0 5.4102 2.1523 10.598 5.9766 14.426 3.8242 3.8242 9.0156 5.9727 14.426 5.9727h1.3984c0 2.9844 2.418 5.4023 5.4023 5.4023h27.797c1.4336 0 2.8086-0.57031 3.8203-1.582 1.0117-1.0156 1.582-2.3867 1.582-3.8203h1.3984c5.4102 0 10.602-2.1484 14.426-5.9727 3.8242-3.8281 5.9766-9.0156 5.9766-14.426v-10.602c0-1.6562-1.3438-3-3-3z"/>
</svg>
