<?xml version="1.0" encoding="UTF-8"?>
<svg width="100pt" height="100pt" version="1.1" viewBox="0 0 100 100" xmlns="http://www.w3.org/2000/svg">
 <g>
  <path d="m84.109 13.855c0-3.8594-3.1211-6.9609-6.9609-6.9609h-54.301c-3.8398 0-6.9609 3.1016-6.9609 6.9609v19.801h68.219zm-36.781 14.262c0.26172 1 0.058594 2.0586-0.57812 2.8789-0.64062 0.82031-1.5781 1.2812-2.6211 1.2812-1.7227-0.14844-4.8711-0.60156-10.699-0.60156-2.9258 0-7.3086 0.16797-10.68 0.60156-1.0391 0-1.9805-0.46094-2.6211-1.2812-0.64062-0.82031-0.83984-1.8789-0.57812-2.8984 0.87891-3.4805 0.87891-8.1602 0-11.66-0.26172-1-0.058593-2.0586 0.57812-2.8789 0.62109-0.80078 1.5781-1.2812 2.6016-1.2812h0.12109c1.9883 0.17578 4.4414 0.60156 10.578 0.60156 5.9023 0 9.1406-0.46484 10.719-0.60156 1.0195 0 1.9805 0.48047 2.6016 1.2812 0.64062 0.82031 0.83984 1.8789 0.57812 2.8984-0.87891 3.4805-0.87891 8.1602 0 11.66zm33.121 0c0.26172 1 0.039062 2.0586-0.60156 2.8789-0.62109 0.82031-1.5781 1.2812-2.6016 1.2812-3.4375-0.44141-7.5781-0.60156-10.699-0.60156-5.9961 0-9.1875 0.48828-10.422 0.60156h-0.28125c-1.0195 0-1.9805-0.46094-2.6211-1.2812-0.62109-0.82031-0.83984-1.8789-0.57812-2.8984 0.87891-3.4805 0.87891-8.1602 0-11.66-0.26172-1-0.039062-2.0586 0.57812-2.8789 1.8828-2.3516 2.3633-0.67969 13.32-0.67969 3.2227 0 7.2773-0.17188 10.719-0.60156 1.0195 0 1.9609 0.48047 2.5781 1.2812 0.64062 0.82031 0.85938 1.8789 0.60156 2.8984-0.87109 3.4805-0.87109 8.1602 0.007813 11.66z"/>
  <path d="m43.98 14.297c-6.2578 0.78125-14.828 0.78125-21.086 0-0.92578-0.11719-1.6523 0.74219-1.4141 1.6523 0.96484 3.8359 0.96484 8.8242 0 12.66-0.23828 0.91406 0.48828 1.7734 1.4141 1.668 6.2578-0.79297 14.828-0.79297 21.086 0 0.92578 0.10547 1.6523-0.75391 1.4141-1.668-0.96484-3.8359-0.96484-8.8242 0-12.66 0.24219-0.91406-0.48828-1.7734-1.4141-1.6523z"/>
  <path d="m77.09 14.297c-6.2578 0.78125-14.828 0.78125-21.086 0-0.92578-0.11719-1.6523 0.74219-1.4141 1.6523 0.96484 3.8359 0.96484 8.8242 0 12.66-0.23828 0.91406 0.48828 1.7734 1.4141 1.668 6.2578-0.79297 14.828-0.79297 21.086 0 0.92578 0.10547 1.6523-0.75391 1.4141-1.668-0.96484-3.8359-0.96484-8.8242 0-12.66 0.23828-0.91406-0.48828-1.7734-1.4141-1.6523z"/>
  <path d="m89.91 54.176-0.78125-0.039062c-3.4805-0.23828-6.5391-0.33984-9.3594-0.33984-2.0586 0-3.6016 0.058594-4.8203 0.10156-0.83984 0.039062-1.5391 0.058593-2.1406 0.058593-3.3984 0-4.6797-0.83984-10.16-4.3789-0.94141-0.62109-2.0391-1.3203-3.3008-2.1406-2.7812-1.7812-5.0586-2.5781-7.3984-2.5781-1.6406 0-3.2383 0.35938-5.1016 0.78125-2.1406 0.48047-4.5391 1.0391-7.5781 1.1602-0.28125 0.019531-0.57812 0.019531-0.87891 0.019531-4.4609 0-8.8984-1.4414-12.82-2.7188-3.1992-1.0391-6.2383-2.0391-8.6406-2.0391-0.71875 0-1.3594 0.10156-1.9219 0.28125l-1.3594 0.44141-5.5 17.539h83.68z"/>
  <path d="m95.215 62.316h-90.43c-1.5469 0-2.7852 1.2383-2.7852 2.7852v16.254c0 1.5469 1.2383 2.7852 2.7852 2.7852h90.43c1.5312 0 2.7852-1.2383 2.7852-2.7852v-16.254c0-1.5469-1.2539-2.7852-2.7852-2.7852z"/>
  <path d="m5.4688 93.105h4.1406l2.0547-6.9648h-6.1953z"/>
  <path d="m90.375 93.105h4.1445v-6.9648h-6.1992z"/>
  <path d="m39.191 44.797c8.9805-0.37891 12.441-4.7188 21.238 0.96094 14.738 9.4414 5.7188 4.8594 28.84 6.3789l-5.1602-16.48h-68.219l-1.5 4.7812c6.1406-2 15.621 4.7578 24.801 4.3594z"/>
 </g>
</svg>
