<svg xmlns="http://www.w3.org/2000/svg" width="18" height="18" viewBox="0 0 18 18">
    <g fill="none" fill-opacity=".5" fill-rule="evenodd">
        <g fill="#FFF">
            <g>
                <g>
                    <path d="M9 .75c4.556 0 8.25 3.694 8.25 8.25S13.556 17.25 9 17.25.75 13.556.75 9 4.444.75 9 .75zM6.879 5.818c-.293-.293-.768-.293-1.061 0l-.062.07c-.23.295-.208.72.062.99L7.94 9l-2.122 2.122c-.293.293-.293.768 0 1.061.293.293.768.293 1.06 0L9 10.061l2.121 2.121c.293.293.768.293 1.061 0 .293-.293.293-.768 0-1.06L10.061 9l2.121-2.121c.293-.293.293-.768 0-1.061-.293-.293-.768-.293-1.06 0L9 7.938z" transform="translate(-1346 -4223) translate(1063 4204) translate(283 19)"/>
                </g>
            </g>
        </g>
    </g>
</svg>
