<svg xmlns="http://www.w3.org/2000/svg" width="13" height="12" viewBox="0 0 13 12">
    <g fill="none" fill-opacity=".4" fill-rule="evenodd">
        <g fill="#7C868D">
            <g>
                <g>
                    <g>
                        <g>
                            <g>
                                <path d="M6.55 6.049l1.947 1.155c.244.146.326.46.182.706-.131.225-.41.312-.642.21l-.053-.028L5.74 6.73c-.149-.09-.24-.253-.24-.427V3.775c0-.29.235-.525.525-.525.29 0 .524.235.524.525v2.274zM6 10.5c.808 0 1.563-.207 2.263-.62.683-.395 1.222-.934 1.617-1.617.413-.7.62-1.455.62-2.263 0-.808-.207-1.563-.62-2.263-.395-.683-.934-1.222-1.617-1.617-.7-.413-1.455-.62-2.263-.62-.808 0-1.563.207-2.263.62-.683.395-1.222.934-1.617 1.617-.413.7-.62 1.455-.62 2.263 0 .808.207 1.563.62 2.263.395.683.934 1.222 1.617 1.617.7.413 1.455.62 2.263.62zm0-10c1.005 0 1.935.251 2.79.754.828.476 1.48 1.128 1.956 1.956.503.855.754 1.785.754 2.79 0 1.005-.251 1.935-.754 2.79-.476.828-1.128 1.48-1.956 1.956-.855.503-1.785.754-2.79.754-1.005 0-1.935-.251-2.79-.754-.828-.484-1.48-1.141-1.956-1.97C.75 7.921.5 6.996.5 6c0-.996.251-1.921.754-2.776.484-.829 1.141-1.486 1.97-1.97C4.079.75 5.004.5 6 .5z" transform="translate(-411 -997) translate(125 561) translate(1 50) translate(15.44 384) translate(267.627 2) translate(2.347)"/>
                            </g>
                        </g>
                    </g>
                </g>
            </g>
        </g>
    </g>
</svg>
