<?xml version="1.0" encoding="UTF-8"?>
<svg width="100pt" height="100pt" version="1.1" viewBox="0 0 100 100" xmlns="http://www.w3.org/2000/svg">
 <g>
  <path d="m94 40.898h-4.5l-2.8984-9.1016c-1.6016-4.6953-5.8008-7.7969-10.801-7.7969h-25.699c-4.8984 0-9.1992 3.1016-10.699 7.8008l-0.89844 2.8008h2.6992c1.6016 0 3.1016 0.69922 4.1016 1.8984l0.80078-2.5c0.5-1.6992 2.1016-2.8984 4-2.8984h25.699c1.8008 0 3.3984 1.1992 4 2.8984l3.3984 10.602c0.10156 0.5-0.19922 1-0.69922 1h-37.203l-0.30078 0.69922c-0.80078 2.1992-3 3.6992-5.3984 3.6992h-6.3984c-0.69922 3.3008-1.1016 6.6016-1.1016 9.8984v17.102c0 2 1.6016 3.5 3.5 3.5h5.8984c2 0 3.5-1.6016 3.5-3.5v-5.5h35.699v5.5c0 2 1.6016 3.5 3.5 3.5h5.8984c2 0 3.5-1.6016 3.5-3.5l0.003906-17.102c0-3.3984-0.39844-6.6992-1.1016-10h1.5c2 0 3.5-1.6016 3.5-3.5v-2c0-2-1.6016-3.5-3.5-3.5zm-43.801 21h-7.1992c-1.1992 0-2.1992-1-2.1992-2.1992v-3.3984c0-1.3984 1.1992-2.3984 2.5-2.1016l6.6992 1c0.89844 0.19922 1.6016 0.80078 1.8008 1.6992l0.5 2.3008c0.30078 1.4023-0.69922 2.6992-2.1016 2.6992zm34.902-2.1992c0 1.1992-1 2.1992-2.1992 2.1992h-7.1992c-1.3984 0-2.3984-1.3008-2.1016-2.6992l0.5-2.3008c0.19922-0.89844 0.89844-1.5 1.8008-1.6992l6.6992-1c1.3984-0.19922 2.5 0.80078 2.5 2.1016z"/>
  <path d="m40.898 44.801 1.5-4c0.30078-0.89844-0.30078-1.8008-1.1992-1.8008h-18.801l-4.1016 10.199-0.79688-7.1992h0.5c0.30078 0 0.60156-0.30078 0.60156-0.60156v-1.8984c0-0.30078-0.30078-0.60156-0.60156-0.60156h-3.1016c-0.30078 0-0.60156 0.30078-0.60156 0.60156v1.8984c0 0.30078 0.30078 0.60156 0.60156 0.60156h0.60156l-0.89844 7.1992-4-10c-3.6992 0.80078-6.5 3.8984-7 7.8008l-1.1016 10.801c-0.10156 1.1016 0.60156 2.1016 1.6992 2.3008 1.1992 0.19922 2.6992 0.5 4.3984 0.60156l1 17.301c0.10156 1.5 1.3008 2.6016 2.6992 2.6016h8.3984c1.5 0 2.6992-1.1016 2.6992-2.6016l1.3984-29.699c0-1.5 1.1992-2.6992 2.6992-2.6992h12.102c0.60547-0.003907 1.1055-0.30469 1.3047-0.80469z"/>
  <path d="m25.398 28.301c0 4.9141-3.9844 8.8984-8.8984 8.8984s-8.8984-3.9844-8.8984-8.8984c0-4.918 3.9844-8.9023 8.8984-8.9023s8.8984 3.9844 8.8984 8.9023"/>
 </g>
</svg>
