<?xml version="1.0" encoding="utf-8"?>
<!-- Generator: Adobe Illustrator 24.3.0, SVG Export Plug-In . SVG Version: 6.00 Build 0)  -->
<svg version="1.1" id="Layer_1" xmlns="http://www.w3.org/2000/svg" xmlns:xlink="http://www.w3.org/1999/xlink" x="0px" y="0px"
	 viewBox="0 0 100 100" style="enable-background:new 0 0 100 100;" xml:space="preserve">
<path d="M75,14.4c-0.5-1.7-2.2-2.8-4-2.3l-5.8,1.6c-0.8,0.2-1.5,0.8-2,1.5c-0.4,0.8-0.6,1.6-0.3,2.5l1.6,6.2H34.7l-1.8-6.8
	c-0.5-1.7-2.3-2.8-4-2.3l-5.8,1.6c-0.8,0.2-1.5,0.8-2,1.5s-0.6,1.6-0.3,2.5L25,35.6c0.4,1.4,1.7,2.4,3.1,2.4c0.3,0,0.6,0,0.8-0.1
	l5.8-1.6c0.8-0.2,1.5-0.8,2-1.5c0.4-0.8,0.6-1.6,0.3-2.5l-1.6-6.2l13.4,0v47.5H35V67c0-1.8-1.5-3.2-3.2-3.2h-6
	c-1.8,0-3.2,1.5-3.2,3.2v16c0,1.8,1.5,3.2,3.2,3.2h6c1.8,0,3.2-1.5,3.2-3.2v-6.8h30V83c0,1.8,1.5,3.2,3.2,3.2h6
	c1.8,0,3.2-1.5,3.2-3.2V67c0-1.8-1.5-3.2-3.2-3.2h-6c-1.8,0-3.2,1.5-3.2,3.2v6.8H51.2V26.2h14l1.8,6.8c0.4,1.4,1.7,2.4,3.1,2.4
	c0.3,0,0.6,0,0.8-0.1l5.8-1.6c0.8-0.2,1.5-0.8,2-1.5s0.6-1.6,0.3-2.5L75,14.4z"/>
</svg>
