<svg xmlns="http://www.w3.org/2000/svg" width="32" height="32" viewBox="0 0 32 32">
    <g fill="none" fill-rule="evenodd">
        <g fill="#FFF">
            <g>
                <g>
                    <path d="M16 1.333C24.1 1.333 30.667 7.9 30.667 16S24.1 30.667 16 30.667 1.333 24.1 1.333 16 7.9 1.333 16 1.333zm0 19.334c-.463 0-.856.157-1.18.472-.325.314-.487.706-.487 1.174 0 .469.162.867.486 1.195.325.328.718.492 1.181.492.463 0 .856-.164 1.18-.492.325-.328.487-.726.487-1.195 0-.468-.162-.86-.486-1.174-.325-.315-.718-.472-1.181-.472zM16 8c-.87 0-1.583.792-1.66 1.803l-.007.18v7.367c0 1.095.747 1.983 1.667 1.983.87 0 1.583-.792 1.66-1.802l.007-.181V9.983C17.667 8.888 16.92 8 16 8z" transform="translate(-1080 -4221) translate(1063 4204) translate(17 17)"/>
                </g>
            </g>
        </g>
    </g>
</svg>
