<svg xmlns="http://www.w3.org/2000/svg" width="16" height="17" viewBox="0 0 16 17">
    <g fill="none" fill-opacity=".4" fill-rule="evenodd">
        <g fill="#7C868D">
            <g>
                <g>
                    <g>
                        <g>
                            <path d="M9.072 10.667c.167 0 .257.023.339.066.081.044.145.108.189.19.043.08.067.17.067.339v.143c0 .168-.024.258-.067.34-.044.08-.108.145-.19.188-.08.044-.17.067-.338.067H4.928c-.167 0-.257-.023-.339-.067-.081-.043-.145-.107-.189-.189-.043-.081-.067-.171-.067-.34v-.142c0-.168.024-.258.067-.34.044-.081.108-.145.19-.189.08-.043.17-.066.338-.066h4.144zm2-3.334c.167 0 .257.024.339.067.081.044.145.108.189.19.043.08.067.17.067.338v.144c0 .167-.024.257-.067.339-.044.081-.108.145-.19.189-.08.043-.17.067-.338.067H2.928c-.167 0-.257-.024-.339-.067-.081-.044-.145-.108-.189-.19-.043-.08-.067-.17-.067-.338v-.144c0-.167.024-.257.067-.339.044-.081.108-.145.19-.189.08-.043.17-.067.338-.067h8.144zm2-3.333c.167 0 .257.023.339.067.081.043.145.107.189.189.043.081.067.171.067.34v.142c0 .168-.024.258-.067.34-.044.081-.108.145-.19.189-.08.043-.17.066-.338.066H.928c-.167 0-.257-.023-.339-.066-.081-.044-.145-.108-.189-.19-.043-.08-.067-.17-.067-.339v-.143c0-.168.024-.258.067-.34.044-.08.108-.145.19-.188C.67 4.023.76 4 .927 4h12.144z" transform="translate(-333 -209) translate(124 120) translate(199 82.539) translate(5) translate(1 7)"/>
                        </g>
                    </g>
                </g>
            </g>
        </g>
    </g>
</svg>
