<?xml version="1.0" encoding="UTF-8"?>
<svg width="100pt" height="100pt" version="1.1" viewBox="0 0 100 100" xmlns="http://www.w3.org/2000/svg">
 <g>
  <path d="m0 41.199c0 5.7617 4.6602 10.422 10.422 10.422s10.422-4.6602 10.422-10.422c0-7.2617-10.422-20.781-10.422-20.781 0 0.003906-10.422 13.203-10.422 20.781zm12.641 7.1797c0 0.17969-0.12109 0.33984-0.30078 0.37891-0.55859 0.14063-1.1211 0.19922-1.6992 0.19922-4.0781 0-7.3984-3.3203-7.3984-7.3984 0-0.55859 0.17969-1.5781 1-3.2383 0.078124-0.16016 0.28125-0.23828 0.46094-0.19922 0.17969 0.058594 0.30078 0.21875 0.28125 0.42188-0.019531 0.16016-0.019531 0.32031-0.019531 0.44141 0 4.3789 3.1211 8.1602 7.3984 9.0195 0.15625 0.054688 0.27734 0.19531 0.27734 0.375z"/>
  <path d="m99.941 71.781c-0.30078-3.1211-1.6211-5.9414-3.3203-8.3203l0.32031-0.32031c0.33984-0.35938 0.33984-0.92188-0.019531-1.2617l-4.7812-4.6797c0.66016-0.69922 0.62109-1.8008-0.078125-2.4414l-21.543-20.059-5.5781-5.1797c-0.21875-0.21875-0.5-0.37891-0.80078-0.48047l-20.281-7.1602c-0.80078-0.28125-1.6406-0.21875-2.3789 0.10156-0.26172 0.12109-0.5 0.30078-0.69922 0.5l-14.68-13.461-15.66-0.019531-0.019531 6.8203 13.02 0.019532 12.762 11.699c-0.60156 0.85938-0.62109 2.0586 0.078125 2.8594 0.058594 0.058593 0.12109 0.12109 0.17969 0.17969l13.039 12.121c0.46094 0.44141 0.71875 1.0391 0.71875 1.6797l-0.039062 11.141c0 0.64062 0.26172 1.2383 0.71875 1.6797l4.7812 4.4609c0.33984 0.32031 0.78125 0.51953 1.2617 0.60156l9.0586 1.1797c0.33984 0.039063 0.66016 0.16016 0.94141 0.33984l10.32 6.6406c0.92188 0.60156 2.1602 0.44141 2.8984-0.35938l4.3008-4.6016 1.4609-1.5781 4.6211 4.5195c0.35938 0.33984 0.92188 0.33984 1.2617-0.019532 0.82031 1.3984 1.3203 2.7617 1.4414 4.0586 0.19922 2.0781-0.53906 4.0391-2.2812 6-4.0586 4.6211-13.359 6.5195-27.68 5.6406-1.6406-0.10156-3.3008-0.30078-5.0195-0.53906l-1.6992 6.5586c2.0781 0.30078 4.1992 0.55859 6.3203 0.69922 16.719 1.0195 27.559-1.5586 33.141-7.9219 2.9727-3.3789 4.293-7.0977 3.9141-11.098zm-21.703-16.859-4.5 4.8789c-0.66016 0.69922-1.7383 0.78125-2.4805 0.16016l-0.96094-0.80078c-0.39844-0.33984-0.89844-0.53906-1.4219-0.60156l-9.9805-1.1797c-0.55859-0.058594-1.0586-0.30078-1.4805-0.69922l-1.6406-1.5781c-0.5-0.48047-0.78125-1.1211-0.80078-1.8008l-0.28125-13.02c-0.019531-1.3594 1.0391-2.5 2.4219-2.5586l2.3008-0.078125c1.5-0.058593 2.9805 0.48047 4.1016 1.5l14.602 13.199c0.74219 0.69531 0.80469 1.8359 0.12109 2.5781z"/>
  <path d="m60.859 39.199c-0.42188-0.10156-0.83984-0.16016-1.2812-0.14062l-2.3008 0.078125c-0.62109 0.019531-1.1016 0.53906-1.1016 1.1602l0.058594 2.6992 1.3594-0.019532c1.7383-0.039062 3.4414 0.5 4.8398 1.5l9.0586 6.5c1 0.71875 2.3398 0.82031 3.4414 0.26172l-12.215-11.039c-0.53906-0.48047-1.1797-0.82031-1.8594-1z"/>
 </g>
</svg>
