<svg xmlns="http://www.w3.org/2000/svg" width="26" height="24" viewBox="0 0 26 24">
    <defs>
        <filter id="fwo8xdl2ja">
            <feColorMatrix in="SourceGraphic" values="0 0 0 0 0.905882 0 0 0 0 0.905882 0 0 0 0 0.905882 0 0 0 1.000000 0"/>
        </filter>
    </defs>
    <g fill="none" fill-rule="evenodd">
        <g>
            <g>
                <g filter="url(#fwo8xdl2ja)" transform="translate(-146 -631) translate(125 561) translate(1 50)">
                    <g fill="#FFF">
                        <path d="M23.675 16.03V22c0 .552-.448 1-1 1H16.44c-.552 0-1-.448-1-1s.448-1 1-1h5.176v-4.97c0-.57.46-1.03 1.03-1.03.568 0 1.029.46 1.029 1.03zm-20.587 0V21h5.176c.552 0 1 .448 1 1s-.448 1-1 1H2.029c-.552 0-1-.448-1-1v-5.97c0-.57.461-1.03 1.03-1.03.568 0 1.029.46 1.029 1.03zm11.817-5.498l4.056 6.89c.189.319.038.578-.33.578H6.076c-.37 0-.52-.262-.333-.59l2.71-4.742c.186-.326.545-.366.797-.095l2.08 2.238 2.864-4.3c.205-.308.524-.3.712.021zM23.675 2v5.97c0 .57-.461 1.03-1.03 1.03-.568 0-1.029-.46-1.029-1.03V3H16.44c-.552 0-1-.448-1-1s.448-1 1-1h6.235c.552 0 1 .448 1 1zM9.264 2c0 .552-.448 1-1 1H3.088v4.97c0 .57-.46 1.03-1.03 1.03C1.49 9 1.03 8.54 1.03 7.97V2c0-.552.448-1 1-1h6.235c.552 0 1 .448 1 1zm-.926 4c.985 0 1.784.768 1.784 1.714 0 .947-.799 1.715-1.784 1.715-.986 0-1.785-.768-1.785-1.715 0-.946.8-1.714 1.785-1.714z" transform="translate(20.587 20)"/>
                    </g>
                </g>
            </g>
        </g>
    </g>
</svg>
