<svg xmlns="http://www.w3.org/2000/svg" width="24" height="24" viewBox="0 0 24 24">
    <g fill="none" fill-rule="evenodd">
        <g>
            <g>
                <g>
                    <g>
                        <path fill="#4285F4" d="M23.038 12.016c0-.967-.078-1.672-.248-2.404H11.754v4.363h6.478c-.13 1.084-.836 2.716-2.403 3.813l-.022.146 3.49 2.703.241.024c2.22-2.05 3.5-5.067 3.5-8.645" transform="translate(-777 -458) translate(320 192) translate(441 251) translate(16 15)"/>
                        <path fill="#34A853" d="M11.754 23.509c3.174 0 5.838-1.045 7.784-2.848l-3.709-2.873c-.992.692-2.325 1.176-4.075 1.176-3.108 0-5.746-2.05-6.687-4.885l-.137.012L1.3 16.899l-.047.132c1.933 3.84 5.903 6.478 10.5 6.478" transform="translate(-777 -458) translate(320 192) translate(441 251) translate(16 15)"/>
                        <path fill="#FBBC05" d="M5.067 14.08c-.248-.732-.391-1.516-.391-2.326s.143-1.593.378-2.324l-.006-.156L1.374 6.42l-.12.057C.457 8.07 0 9.86 0 11.754c0 1.894.457 3.683 1.254 5.277l3.813-2.952" transform="translate(-777 -458) translate(320 192) translate(441 251) translate(16 15)"/>
                        <path fill="#EB4335" d="M11.754 4.545c2.207 0 3.696.953 4.545 1.75l3.318-3.239C17.579 1.162 14.927 0 11.754 0c-4.597 0-8.567 2.638-10.5 6.478l3.8 2.952c.954-2.835 3.592-4.885 6.7-4.885" transform="translate(-777 -458) translate(320 192) translate(441 251) translate(16 15)"/>
                    </g>
                </g>
            </g>
        </g>
    </g>
</svg>
