<svg xmlns="http://www.w3.org/2000/svg" width="24" height="25" viewBox="0 0 24 25">
    <g fill="none" fill-rule="evenodd">
        <g fill="#00A1E0">
            <g>
                <g>
                    <g>
                        <path d="M3.902 12.93l6.072-.002c.357 0 .486.037.617.106.13.07.232.171.302.3.07.13.107.259.107.614v5.915c0 .355-.037.484-.107.613-.07.13-.172.232-.302.301-.13.07-.26.106-.617.106H4.026c-.357 0-.486-.037-.617-.106-.13-.07-.232-.171-.302-.3-.061-.114-.097-.227-.105-.49L3 13.946c0-.354.037-.483.107-.612.07-.13.172-.232.302-.301.114-.06.228-.096.493-.105zm10 0l6.072-.002c.357 0 .486.037.617.106.13.07.232.171.302.3.07.13.107.259.107.614v5.915c0 .355-.037.484-.107.613-.07.13-.172.232-.302.301-.13.07-.26.106-.617.106h-5.948c-.357 0-.486-.037-.617-.106-.13-.07-.232-.171-.302-.3-.061-.114-.097-.227-.105-.49L13 13.946c0-.354.037-.483.107-.612.07-.13.172-.232.302-.301.114-.06.228-.096.493-.105zm-10-9.945l6.072-.002c.357 0 .486.037.617.107.13.069.232.17.302.3.07.13.107.259.107.613V9.92c0 .355-.037.483-.107.613s-.172.231-.302.3c-.13.07-.26.107-.617.107H4.026c-.357 0-.486-.037-.617-.106-.13-.07-.232-.171-.302-.301-.061-.114-.097-.226-.105-.49L3 4.003c0-.354.037-.483.107-.613s.172-.231.302-.3c.114-.061.228-.097.493-.105zm10 0l6.072-.002c.357 0 .486.037.617.107.13.069.232.17.302.3.07.13.107.259.107.613V9.92c0 .355-.037.483-.107.613s-.172.231-.302.3c-.13.07-.26.107-.617.107h-5.948c-.357 0-.486-.037-.617-.106-.13-.07-.232-.171-.302-.301-.061-.114-.097-.226-.105-.49L13 4.003c0-.354.037-.483.107-.613s.172-.231.302-.3c.114-.061.228-.097.493-.105z" transform="translate(-1216 -255) translate(124 120) translate(15 135.244) translate(1077)"/>
                    </g>
                </g>
            </g>
        </g>
    </g>
</svg>
