<svg xmlns="http://www.w3.org/2000/svg" width="24" height="24" viewBox="0 0 24 24">
    <g fill="none" fill-rule="evenodd">
        <g fill="#FFF">
            <g>
                <path d="M12 1c6.075 0 11 4.925 11 11s-4.925 11-11 11S1 18.075 1 12 5.925 1 12 1zM9.172 7.757c-.39-.39-1.024-.39-1.415 0l-.083.095c-.305.392-.277.96.084 1.32l2.828 2.827-2.829 2.83c-.39.39-.39 1.023 0 1.414.39.39 1.024.39 1.415 0L12 13.414l2.828 2.829c.391.39 1.024.39 1.415 0 .39-.39.39-1.024 0-1.415L13.414 12l2.829-2.828c.39-.391.39-1.024 0-1.415-.39-.39-1.024-.39-1.415 0l-2.827 2.828z" transform="translate(-1140 -12) translate(1140 12)"/>
            </g>
        </g>
    </g>
</svg>
