<svg xmlns="http://www.w3.org/2000/svg" width="26" height="24" viewBox="0 0 26 24">
    <defs>
        <filter id="t5q16x8vga">
            <feColorMatrix in="SourceGraphic" values="0 0 0 0 0.905882 0 0 0 0 0.905882 0 0 0 0 0.905882 0 0 0 1.000000 0"/>
        </filter>
    </defs>
    <g fill="none" fill-rule="evenodd">
        <g>
            <g>
                <g filter="url(#t5q16x8vga)" transform="translate(-466 -631) translate(125 561) translate(1 50)">
                    <g>
                        <g fill="#FFF">
                            <path d="M7.595 2c1.568 0 3.193.566 4.78 1.642 1.576-1.047 3.193-1.606 4.734-1.606 3.206 0 5.709 2.315 6.388 5.813 1.079 5.687-2.797 11.804-10.48 15.021-.207.085-.425.13-.647.13-.222 0-.44-.045-.647-.13C4.026 19.724.129 13.598 1.206 7.875 1.862 4.345 4.379 2 7.595 2zm0 2C5.42 4 3.71 5.6 3.228 8.228c-.897 4.828 2.56 10 9.14 12.772 6.568-2.838 10.003-8.006 9.108-12.787-.498-2.6-2.199-4.176-4.368-4.176-1.105 0-2.339.426-3.609 1.282l-1.135.765-1.129-.775C9.96 4.432 8.723 4 7.595 4z" transform="translate(20.587 20) translate(319.917)"/>
                        </g>
                    </g>
                </g>
            </g>
        </g>
    </g>
</svg>
