<svg xmlns="http://www.w3.org/2000/svg" width="24" height="24" viewBox="0 0 24 24">
    <g fill="none" fill-rule="evenodd">
        <g fill="#00A1E0">
            <g>
                <g>
                    <g>
                        <g>
                            <path d="M11.98 13c.722 0 1.392-.18 2.01-.541.619-.36 1.108-.844 1.469-1.45.36-.605.541-1.268.541-1.99 0-.721-.18-1.391-.541-2.01-.36-.618-.85-1.107-1.469-1.468-.618-.36-1.288-.541-2.01-.541-.72 0-1.384.18-1.99.541-.605.36-1.088.85-1.449 1.469C8.181 7.628 8 8.298 8 9.02c0 1.107.386 2.048 1.16 2.82.772.774 1.713 1.16 2.82 1.16zM12 1c1.65 0 3.165.347 4.546 1.042 1.361.694 2.444 1.629 3.248 2.804C20.598 6.039 21 7.348 21 8.772c0 1.086-.31 2.333-.928 3.74-.536 1.192-1.278 2.483-2.227 3.872-.783 1.104-1.68 2.252-2.69 3.445-.701.837-1.444 1.656-2.227 2.457l-.56.564c-.187.189-.503.2-.706.028l-.03-.028-.56-.564c-.783-.8-1.526-1.62-2.227-2.457-1.01-1.193-1.907-2.341-2.69-3.445-.949-1.389-1.691-2.68-2.227-3.873C3.309 11.105 3 9.858 3 8.772c0-1.424.402-2.733 1.206-3.926.804-1.175 1.887-2.11 3.248-2.804C8.835 1.347 10.35 1 12 1z" transform="translate(-1078 -2402) translate(169 2160) translate(50 96) translate(859 137) translate(0 9)"/>
                        </g>
                    </g>
                </g>
            </g>
        </g>
    </g>
</svg>
