<svg xmlns="http://www.w3.org/2000/svg" width="25" height="24" viewBox="0 0 25 24">
    <g fill="none" fill-opacity=".4" fill-rule="evenodd">
        <g fill="#7C868D">
            <g>
                <g>
                    <g>
                        <path d="M15.476 8.534v-2.16c0-.583-.157-1.131-.472-1.645-.314-.515-.74-.922-1.28-1.222-.538-.3-1.113-.45-1.724-.45-.61 0-1.186.15-1.725.45-.538.3-.965.707-1.28 1.222-.314.514-.471 1.062-.471 1.645v2.16h6.952zM12 18.177c.61 0 1.14-.214 1.59-.643.449-.428.673-.934.673-1.517 0-.583-.224-1.088-.673-1.517-.45-.429-.98-.643-1.59-.643-.61 0-1.14.214-1.59.643-.449.429-.673.934-.673 1.517 0 .583.224 1.089.673 1.517.45.429.98.643 1.59.643zm6.737-9.643c.61 0 1.14.206 1.59.617.448.412.673.909.673 1.492V20.89c0 .583-.225 1.08-.674 1.492-.449.411-.979.617-1.59.617H5.264c-.61 0-1.14-.206-1.59-.617C3.226 21.97 3 21.474 3 20.89V10.643c0-.583.225-1.08.674-1.492.449-.411.979-.617 1.59-.617h1.104v-2.16c0-.977.252-1.877.755-2.7C7.626 2.851 8.308 2.2 9.17 1.72 10.033 1.24 10.976 1 12 1c1.024 0 1.967.24 2.83.72.862.48 1.544 1.131 2.047 1.954.503.823.755 1.723.755 2.7v2.16h1.105z" transform="translate(-644 -468) translate(320 192) translate(40 235) translate(284.003 41)"/>
                    </g>
                </g>
            </g>
        </g>
    </g>
</svg>
