<svg xmlns="http://www.w3.org/2000/svg" width="25" height="24" viewBox="0 0 25 24">
    <g fill="none" fill-opacity=".4" fill-rule="evenodd">
        <g fill="#7C868D">
            <g>
                <g>
                    <g>
                        <path d="M20.53 2.5c1.64 0 2.97 1.354 2.97 3.024v12.952c0 1.67-1.33 3.024-2.97 3.024H3.47C1.83 21.5.5 20.146.5 18.476V5.524C.5 3.854 1.83 2.5 3.47 2.5h17.06zM6.311 5H3.364c-.138 0-.25.112-.25.25 0 .086.044.166.117.211L12 11l8.77-5.539c.116-.073.151-.228.077-.344-.045-.073-.125-.117-.211-.117h-2.948L12 8.5 6.312 5z" transform="translate(-644 -383) translate(320 192) translate(40 150) translate(284.003 41)"/>
                    </g>
                </g>
            </g>
        </g>
    </g>
</svg>
