<?xml version="1.0" encoding="UTF-8"?>
<svg width="100pt" height="100pt" version="1.1" viewBox="0 0 100 100" xmlns="http://www.w3.org/2000/svg">
 <g>
  <path d="m50 0.5c-27.34 0-49.5 22.16-49.5 49.5s22.16 49.5 49.5 49.5 49.5-22.16 49.5-49.5-22.16-49.5-49.5-49.5zm0 94.875c-25.059 0-45.375-20.312-45.375-45.375 0-25.059 20.316-45.375 45.375-45.375 25.062 0 45.375 20.316 45.375 45.375 0 25.062-20.312 45.375-45.375 45.375z"/>
  <path d="m48.453 6.6875h3.0938v11.344h-3.0938z"/>
  <path d="m72.914 29.328l-2.1914-2.1875 8.0195-8.0234 2.1914 2.1875z"/>
  <path d="m29.273 27.133l-2.1875 2.1875-8.0234-8.0195 2.1875-2.1875z"/>
  <path d="m80.938 48.453h11.344v3.0938h-11.344z"/>
  <path d="m8.75 48.453h11.344v3.0938h-11.344z"/>
  <path d="m30.406 74.75v7.2188h39.188v-7.2188zm37.715 6.1875h-36.242v-5.1562h36.242z"/>
  <path d="m49.574 44.887l-9.1016-22.188-2.8633 1.1758 9.1016 22.188c-1.6797 1.4023-2.3594 3.7656-1.4805 5.8984 1.082 2.6367 4.0938 3.8945 6.7266 2.8125 2.6367-1.0781 3.8945-4.0938 2.8125-6.7266-0.875-2.1367-3.0156-3.3438-5.1953-3.1602z"/>
 </g>
</svg>
