<svg xmlns="http://www.w3.org/2000/svg" width="32" height="32" viewBox="0 0 32 32">
    <g fill="none" fill-rule="evenodd">
        <g fill="#FFF">
            <g>
                <g>
                    <g>
                        <path d="M30.423 28.05l-7.59-7.646c-.285-.287-.314-.728-.093-1.067C25.852 14.564 25.126 8 20.535 4.08 16.117.308 9.393.437 5.113 4.366.2 8.876.076 16.552 4.743 21.222c3.979 3.983 10.138 4.466 14.661 1.474.34-.224.785-.195 1.071.093l7.573 7.63c.328.33.86.33 1.188.002l1.185-1.186c.327-.327.328-.857.002-1.185zm-23.31-9.2c-3.238-3.242-3.238-8.515 0-11.756 3.238-3.24 8.507-3.241 11.746 0 3.238 3.241 3.238 8.514 0 11.755-3.239 3.241-8.508 3.241-11.746 0z" transform="translate(-793 -466) translate(125 268) translate(0 185) translate(668 13)"/>
                    </g>
                </g>
            </g>
        </g>
    </g>
</svg>
