<svg xmlns="http://www.w3.org/2000/svg" width="26" height="24" viewBox="0 0 26 24">
    <defs>
        <filter id="ad8ds8j4ia">
            <feColorMatrix in="SourceGraphic" values="0 0 0 0 0.905882 0 0 0 0 0.905882 0 0 0 0 0.905882 0 0 0 1.000000 0"/>
        </filter>
    </defs>
    <g fill="none" fill-rule="evenodd">
        <g>
            <g>
                <g filter="url(#ad8ds8j4ia)" transform="translate(-424 -631) translate(125 561) translate(1 50)">
                    <g>
                        <g fill="#FFF">
                            <path d="M18.528 1c2.274 0 4.117 1.79 4.117 4s-1.843 4-4.117 4c-1.18 0-2.243-.482-2.994-1.254l-5.37 3.26.009.029c.078.309.12.632.12.965 0 .343-.044.676-.128.994l5.37 3.26.092-.092c.744-.718 1.77-1.162 2.901-1.162 2.274 0 4.117 1.79 4.117 4s-1.843 4-4.117 4-4.117-1.79-4.117-4c0-.343.044-.675.127-.993l-5.37-3.26C8.418 15.52 7.355 16 6.176 16c-2.274 0-4.117-1.79-4.117-4s1.843-4 4.117-4c1.18 0 2.243.482 2.993 1.253l5.37-3.26c-.084-.317-.128-.65-.128-.993 0-2.21 1.843-4 4.117-4z" transform="translate(20.587 20) translate(277.92)"/>
                        </g>
                    </g>
                </g>
            </g>
        </g>
    </g>
</svg>
