<svg xmlns="http://www.w3.org/2000/svg" width="26" height="26" viewBox="0 0 26 26">
    <g fill="none" fill-rule="evenodd">
        <g fill="#FFF">
            <g>
                <g>
                    <g>
                        <g>
                            <g>
                                <path d="M13 .542c7.296 0 12.458 4.823 12.458 11.31 0 6.488-5.162 11.311-12.458 11.311-1.36 0-2.656-.163-3.869-.485l-4.02 2.54c-1.132.715-2.58-.238-2.37-1.56l.685-4.325c-1.864-2.01-2.884-4.638-2.884-7.48C.542 5.365 5.704.542 13 .542zm-5.14 10.02h-.01c-1.75 0-1.798 2.56-.147 2.703l.156.006c1.8 0 1.8-2.709 0-2.709zm5.416 0h-.01c-1.75 0-1.798 2.56-.146 2.703l.156.006c1.799 0 1.799-2.709 0-2.709zm5.416 0h-.01c-1.748 0-1.797 2.56-.145 2.703l.155.006c1.8 0 1.8-2.709 0-2.709z" transform="translate(-1235 -908) translate(127 378) translate(788 55) translate(16 463) translate(293) translate(11 12)"/>
                            </g>
                        </g>
                    </g>
                </g>
            </g>
        </g>
    </g>
</svg>
