<svg xmlns="http://www.w3.org/2000/svg" width="24" height="23" viewBox="0 0 24 23">
    <g fill="none" fill-rule="evenodd">
        <g fill="#FFF">
            <g>
                <g>
                    <g>
                        <g>
                            <path d="M20 3.169c.552 0 1-.405 1-.905s-.448-.906-1-.906H4c-.552 0-1 .405-1 .906 0 .5.448.905 1 .905h16zm-4.691 17.203c.252 0 .457-.163.457-.363v-6.908h3.686c.303 0 .548-.205.548-.459 0-.121-.057-.237-.159-.323L12.39 6.02c-.213-.18-.56-.181-.775-.003l-7.455 6.3c-.213.18-.212.471.003.65.103.085.241.133.386.133h3.686v6.908c0 .2.205.363.457.363h6.618z" transform="translate(-631 -2751) translate(169 2160) translate(50 527) translate(405 26) translate(7 38.932)"/>
                        </g>
                    </g>
                </g>
            </g>
        </g>
    </g>
</svg>
