<?xml version="1.0" encoding="UTF-8"?>
<svg width="100pt" height="100pt" version="1.1" viewBox="0 0 100 100" xmlns="http://www.w3.org/2000/svg">
 <g>
  <path d="m84.199 12.102h-6.6016l0.003906-3.5c0-3.3984-2.6992-6.1016-6.1016-6.1016-3.3984 0-6.1016 2.6992-6.1016 6.1016v3.5h-30.797v-3.5c0-3.3984-2.6992-6.1016-6.1016-6.1016-3.3984 0-6.1016 2.6992-6.1016 6.1016v3.5h-6.6016c-6.1016 0-11.102 5-11.102 11.102v5.6992h90.699v-5.6992c-0.09375-6.2031-4.9961-11.102-11.195-11.102z"/>
  <path d="m4.6992 86.398c0 6.1016 5 11.102 11.102 11.102h68.5c6.1016 0 11.102-5 11.102-11.102l-0.003906-50.5h-90.699zm59.5-31.598c0-1.1016 0.89844-1.8984 1.8984-1.8984h9.1016c1.1016 0 1.8984 0.89844 1.8984 1.8984v6c0 1.1016-0.89844 1.8984-1.8984 1.8984h-9.1016c-1.1016 0-1.8984-0.89844-1.8984-1.8984zm0 17.801c0-1.1016 0.89844-1.8984 1.8984-1.8984h9.1016c1.1016 0 1.8984 0.89844 1.8984 1.8984v6c0 1.1016-0.89844 1.8984-1.8984 1.8984h-9.1016c-1.1016 0-1.8984-0.89844-1.8984-1.8984zm-20.699-17.801c0-1.1016 0.89844-1.8984 1.8984-1.8984h9.1016c1.1016 0 1.8984 0.89844 1.8984 1.8984v6c0 1.1016-0.89844 1.8984-1.8984 1.8984h-9.1016c-1.1016 0-1.8984-0.89844-1.8984-1.8984zm0 17.801c0-1.1016 0.89844-1.8984 1.8984-1.8984h9.1016c1.1016 0 1.8984 0.89844 1.8984 1.8984v6c0 1.1016-0.89844 1.8984-1.8984 1.8984h-9.1016c-1.1016 0-1.8984-0.89844-1.8984-1.8984zm-20.602-17.801c0-1.1016 0.89844-1.8984 1.8984-1.8984h9.1016c1.1016 0 1.8984 0.89844 1.8984 1.8984v6c0 1.1016-0.89844 1.8984-1.8984 1.8984h-9.1016c-1.1016 0-1.8984-0.89844-1.8984-1.8984zm0 17.801c0-1.1016 0.89844-1.8984 1.8984-1.8984h9.1016c1.1016 0 1.8984 0.89844 1.8984 1.8984v6c0 1.1016-0.89844 1.8984-1.8984 1.8984h-9.1016c-1.1016 0-1.8984-0.89844-1.8984-1.8984z"/>
 </g>
</svg>
